{"glyphs":{"0":{"ha":694,"x_min":11,"x_max":684,"o":"m 80 142 q 11 438 11 260 q 90 765 11 637 q 346 911 180 911 q 602 766 513 911 q 684 438 682 637 q 604 142 684 271 q 346 -16 505 -18 q 80 142 175 -18 m 346 118 q 494 235 448 118 q 525 438 526 316 q 346 776 525 777 q 195 652 235 776 q 174 438 174 582 q 205 237 174 319 q 346 118 247 118 z "},"1":{"ha":694,"x_min":140,"x_max":643,"o":"m 643 138 l 643 0 l 140 0 l 140 138 l 326 138 l 326 742 l 153 742 l 153 884 l 475 884 l 475 138 l 643 138 z "},"2":{"ha":694,"x_min":95,"x_max":667,"o":"m 117 137 l 366 410 q 477 632 477 530 q 444 741 477 696 q 349 785 410 785 q 198 662 269 785 l 95 732 q 346 914 195 914 q 559 835 475 914 q 643 633 643 755 q 583 448 643 541 q 446 288 537 374 q 297 155 373 221 l 667 155 l 667 0 l 117 0 l 117 137 z "},"3":{"ha":694,"x_min":75,"x_max":646,"o":"m 146 201 q 339 95 251 94 q 458 146 418 95 q 494 254 494 190 q 454 358 494 316 q 336 406 411 406 l 250 406 l 250 525 l 336 525 q 435 567 395 525 q 476 670 476 609 q 438 757 476 719 q 349 795 400 795 q 273 769 304 795 q 210 703 252 754 l 123 783 q 347 917 227 917 q 525 854 446 917 q 613 680 613 785 q 570 556 613 606 q 477 487 543 522 q 594 391 548 452 q 646 241 646 321 q 574 68 646 151 q 368 -26 492 -27 q 75 96 178 -26 l 146 201 z "},"4":{"ha":694,"x_min":22,"x_max":669,"o":"m 190 320 l 396 320 l 396 644 l 190 320 m 547 0 l 396 0 l 396 195 l 22 195 l 22 301 l 416 905 l 547 905 l 547 320 l 669 320 l 669 195 l 547 195 l 547 0 z "},"5":{"ha":694,"x_min":35,"x_max":650,"o":"m 35 90 l 102 191 q 311 84 187 84 q 446 157 389 84 q 495 288 495 221 q 336 449 495 449 q 262 420 309 449 q 187 353 214 392 l 73 381 l 73 894 l 587 894 l 587 741 l 184 741 l 184 481 q 256 551 210 521 q 370 586 313 587 q 567 506 487 586 q 650 282 650 420 q 564 69 650 160 q 301 -34 465 -34 q 35 90 110 -33 z "},"6":{"ha":694,"x_min":22,"x_max":675,"o":"m 190 269 q 233 138 190 191 q 362 80 281 80 q 477 143 427 80 q 526 277 526 206 q 485 407 526 361 q 372 453 444 453 q 245 406 296 453 q 190 269 190 354 m 22 374 q 103 746 22 608 q 403 911 199 911 q 628 849 500 911 l 572 734 q 401 784 506 784 q 235 682 293 784 q 178 465 186 601 q 292 563 210 528 q 396 586 350 586 q 590 515 514 586 q 675 296 674 437 q 590 68 675 161 q 362 -31 500 -31 q 127 60 216 -31 q 22 374 22 165 z "},"7":{"ha":694,"x_min":50,"x_max":636,"o":"m 266 -45 l 113 -3 l 488 743 l 50 743 l 50 894 l 636 894 l 636 754 l 266 -45 z "},"8":{"ha":694,"x_min":50,"x_max":655,"o":"m 193 248 q 245 118 193 164 q 345 80 289 80 q 454 128 410 80 q 499 248 499 176 q 349 431 499 372 q 193 248 193 353 m 240 690 q 349 557 256 595 q 473 688 473 606 q 439 774 473 738 q 358 810 406 810 q 282 780 315 810 q 240 690 245 747 m 50 245 q 239 488 50 393 q 94 686 92 585 q 179 863 94 802 q 358 914 251 914 q 525 863 457 914 q 601 699 601 804 q 467 498 601 589 q 655 248 655 396 q 582 46 655 122 q 350 -39 502 -38 q 140 31 221 -39 q 50 245 50 107 z "},"9":{"ha":694,"x_min":34,"x_max":677,"o":"m 35 77 l 118 184 q 222 112 176 132 q 331 92 267 92 q 479 205 430 92 q 518 419 518 293 q 317 302 419 302 q 122 382 203 302 q 34 595 33 467 q 121 820 34 728 q 349 911 209 911 q 570 817 479 911 q 677 505 677 707 q 613 160 677 297 q 320 -37 521 -35 q 35 77 155 -37 m 183 600 q 228 472 183 529 q 340 411 275 411 q 464 462 416 411 q 511 590 511 513 q 473 728 511 670 q 349 795 429 795 q 229 739 275 795 q 183 600 183 684 z "},"\u0000":{"ha":0,"x_min":0,"x_max":0,"o":""},"\f":{"ha":378,"x_min":0,"x_max":0,"o":""}," ":{"ha":378,"x_min":0,"x_max":0,"o":""},"!":{"ha":326,"x_min":52,"x_max":267,"o":"m 77 239 l 77 952 l 251 952 l 251 239 l 77 239 m 52 61 q 82 138 52 106 q 157 170 113 170 q 235 138 203 170 q 267 61 267 106 q 235 -16 267 15 q 157 -46 203 -46 q 82 -15 113 -46 q 52 61 52 16 z "},"\"":{"ha":456,"x_min":68,"x_max":396,"o":"m 264 895 l 294 590 l 342 590 l 396 895 l 264 895 m 68 895 l 99 590 l 144 590 l 198 895 l 68 895 z "},"#":{"ha":743,"x_min":96,"x_max":618,"o":"m 518 735 l 518 688 l 617 697 l 617 582 l 517 571 l 517 450 l 395 437 l 396 559 l 346 553 l 345 431 l 222 418 l 224 540 l 96 526 l 96 642 l 224 655 l 224 704 l 98 690 l 98 806 l 225 819 l 225 914 l 347 926 l 346 833 l 397 837 l 397 932 l 519 947 l 518 852 l 618 861 l 618 746 l 518 735 m 346 670 l 396 674 l 396 722 l 346 716 l 346 670 z "},"$":{"ha":743,"x_min":100,"x_max":635,"o":"m 456 -138 l 293 -138 l 293 -14 q 100 111 170 9 l 190 221 q 366 117 274 117 q 446 152 414 117 q 477 241 477 187 q 387 338 477 301 q 220 414 247 396 q 130 613 129 480 q 178 753 132 692 q 293 834 222 810 l 293 959 l 456 959 l 456 838 q 616 746 526 819 l 529 639 q 381 713 445 713 q 317 685 342 713 q 293 605 293 656 q 382 524 293 553 q 545 453 510 480 q 635 243 635 385 q 456 -9 635 45 l 456 -138 z "},"%":{"ha":743,"x_min":4,"x_max":708,"o":"m 31 719 q 77 850 31 798 q 194 903 123 903 q 311 851 264 903 q 358 719 358 799 q 313 583 358 631 q 194 534 267 534 q 77 583 122 534 q 31 719 31 631 m 4 -64 l 514 880 l 651 827 l 151 -114 l 4 -64 m 374 182 q 422 314 374 260 q 543 368 471 368 q 661 315 613 368 q 708 182 708 262 q 663 41 708 90 q 543 -8 617 -8 q 423 39 468 -8 q 374 182 374 90 m 160 715 q 194 658 160 658 q 228 715 228 658 q 193 776 228 776 q 160 715 160 776 m 509 176 q 543 118 509 118 q 576 176 576 118 q 541 239 576 239 q 509 176 509 239 z "},"&":{"ha":770,"x_min":35,"x_max":742,"o":"m 180 258 q 213 157 180 201 q 313 104 251 104 q 430 167 370 104 q 233 406 281 308 q 180 258 180 365 m 525 83 q 442 16 499 43 q 320 -12 381 -14 q 106 66 184 -12 q 35 245 35 137 q 174 505 35 410 q 127 659 127 581 q 196 823 127 758 q 359 888 264 888 q 457 871 418 888 q 555 789 505 849 l 476 703 q 336 766 423 766 q 279 680 279 766 q 305 575 279 640 q 457 600 362 597 l 479 488 q 369 477 408 488 q 510 296 446 366 q 515 336 515 316 q 503 437 515 382 l 625 458 l 631 420 q 637 351 637 378 q 613 201 637 281 q 742 121 643 175 l 652 0 q 525 83 606 16 z "},"'":{"ha":269,"x_min":69,"x_max":199,"o":"m 69 898 l 110 574 l 151 574 l 199 898 l 69 898 z "},"(":{"ha":441,"x_min":64,"x_max":340,"o":"m 64 449 q 225 1096 64 792 l 338 1034 q 210 449 210 694 q 248 148 210 298 q 340 -138 266 81 l 225 -198 q 64 449 64 121 z "},")":{"ha":438,"x_min":102,"x_max":373,"o":"m 102 -138 q 193 144 178 88 q 232 444 232 294 q 106 1035 232 700 l 218 1095 q 373 453 374 799 q 218 -198 373 113 l 102 -138 z "},"*":{"ha":381,"x_min":19,"x_max":350,"o":"m 235 694 l 237 620 l 133 620 l 136 694 l 77 642 l 19 739 l 103 791 l 20 844 l 76 940 l 137 886 l 134 964 l 239 962 l 235 888 l 292 941 l 347 844 l 269 792 l 350 739 l 292 642 l 235 694 z "},"+":{"ha":690,"x_min":72,"x_max":620,"o":"m 410 133 l 282 133 l 282 369 l 72 369 l 72 500 l 282 500 l 282 724 l 410 724 l 410 500 l 620 500 l 620 369 l 410 369 l 410 133 z "},",":{"ha":353,"x_min":57,"x_max":245,"o":"m 149 -149 l 57 -130 q 94 -1 83 -73 q 100 118 95 12 l 245 118 q 213 -19 245 68 q 149 -149 183 -102 z "},"-":{"ha":528,"x_min":69,"x_max":458,"o":"m 69 500 l 458 500 l 458 370 l 69 370 l 69 500 z "},".":{"ha":338,"x_min":50,"x_max":292,"o":"m 50 107 q 86 193 50 157 q 171 228 122 228 q 256 193 220 228 q 292 107 292 157 q 256 22 292 57 q 171 -12 221 -12 q 86 22 122 -12 q 50 107 50 57 z "},"/":{"ha":534,"x_min":-19,"x_max":578,"o":"m -19 -208 l 411 982 l 578 948 l 149 -240 l -19 -208 z "},":":{"ha":338,"x_min":50,"x_max":292,"o":"m 50 583 q 86 668 50 633 q 171 703 122 703 q 256 668 221 703 q 292 583 292 633 q 256 498 292 533 q 171 463 220 463 q 86 498 122 463 q 50 583 50 533 m 50 107 q 86 193 50 157 q 171 228 122 228 q 256 193 220 228 q 292 107 292 157 q 256 22 292 57 q 171 -12 221 -12 q 86 22 122 -12 q 50 107 50 57 z "},";":{"ha":353,"x_min":57,"x_max":282,"o":"m 95 581 q 190 700 95 700 q 282 581 282 700 q 190 461 282 461 q 95 581 95 461 m 149 -149 l 57 -130 q 94 -1 83 -73 q 100 118 95 12 l 245 118 q 213 -19 245 68 q 149 -149 183 -102 z "},"<":{"ha":507,"x_min":0,"x_max":499,"o":"m 499 64 l 330 58 l 0 401 l 328 735 l 499 730 l 220 396 l 499 64 z "},"=":{"ha":612,"x_min":123,"x_max":570,"o":"m 123 488 l 570 488 l 570 353 l 123 353 l 123 488 m 123 309 l 570 309 l 570 174 l 123 174 l 123 309 z "},">":{"ha":506,"x_min":-22,"x_max":476,"o":"m -19 64 l 259 396 l -22 730 l 149 735 l 476 401 l 149 58 l -19 64 z "},"?":{"ha":758,"x_min":88,"x_max":654,"o":"m 254 83 q 284 155 254 125 q 359 186 315 186 q 437 156 406 186 q 469 83 469 126 q 437 11 469 39 q 359 -18 406 -18 q 284 11 315 -18 q 254 83 254 39 m 530 495 q 425 349 456 439 q 418 247 418 328 l 282 247 q 279 315 277 273 q 282 372 282 380 q 312 488 282 444 q 425 595 336 525 q 490 707 490 648 q 456 800 490 758 q 380 841 423 841 q 218 694 269 841 l 88 749 q 201 912 137 864 q 374 960 264 960 q 586 887 510 960 q 654 707 654 819 q 621 583 654 635 q 530 495 595 544 z "},"@":{"ha":1402,"x_min":46,"x_max":1320,"o":"m 869 652 l 880 708 l 1005 708 q 971 445 996 594 q 925 179 948 313 q 936 113 925 179 q 998 90 944 90 q 1119 181 1057 90 q 1181 373 1181 273 q 1051 726 1181 586 q 712 865 921 865 q 355 700 503 865 q 212 331 212 540 q 331 -49 212 109 q 656 -218 457 -218 q 892 -178 800 -218 q 1093 -30 978 -138 l 1176 -125 q 966 -285 1038 -251 q 656 -336 857 -336 q 205 -138 373 -336 q 46 331 46 47 q 241 783 46 595 q 712 970 437 970 q 1154 805 987 970 q 1320 373 1320 640 q 1200 96 1320 221 q 929 -30 1080 -30 q 802 106 846 -30 q 589 -27 707 -27 q 346 277 346 -27 q 449 571 346 437 q 735 722 563 723 q 811 700 777 722 l 869 652 m 731 605 q 600 541 662 605 q 517 294 517 457 q 533 165 517 205 q 637 98 559 98 q 740 159 680 98 q 810 277 800 220 l 857 537 q 799 583 840 560 q 731 605 758 605 z "},"A":{"ha":788,"x_min":33,"x_max":754,"o":"m 528 206 l 240 206 l 176 -16 l 33 3 l 321 909 l 463 909 l 754 9 l 593 -16 l 528 206 m 278 335 l 490 335 l 387 696 l 278 335 z "},"B":{"ha":696,"x_min":88,"x_max":654,"o":"m 88 3 l 88 890 q 218 892 99 890 q 357 895 307 895 q 532 836 468 895 q 597 670 597 777 q 562 566 597 616 q 472 487 528 517 q 599 416 544 481 q 654 267 654 351 q 540 43 654 107 q 292 -3 457 -3 q 184 0 254 -3 q 88 3 114 3 m 251 791 l 251 528 l 312 528 q 412 567 374 528 q 446 656 446 604 q 331 793 445 792 q 251 791 301 793 m 251 422 l 251 113 l 345 113 q 458 157 419 113 q 496 269 496 198 q 457 372 496 327 q 342 422 412 422 l 251 422 z "},"C":{"ha":773,"x_min":43,"x_max":718,"o":"m 43 457 q 138 768 43 637 q 435 917 248 917 q 708 821 553 917 l 650 712 q 560 766 562 764 q 457 791 510 789 q 282 665 346 791 q 231 442 231 564 q 298 220 231 311 q 453 133 362 134 q 545 151 502 133 q 652 205 579 163 l 718 96 q 574 15 625 37 q 427 -11 507 -11 q 134 136 239 -11 q 43 457 43 266 z "},"D":{"ha":784,"x_min":88,"x_max":741,"o":"m 88 3 l 88 892 q 313 899 199 898 q 741 449 736 899 q 633 119 742 236 q 308 -3 522 -3 q 210 0 274 -3 q 88 3 145 3 m 326 791 q 293 791 316 791 q 256 789 273 789 l 256 121 l 334 121 q 507 222 441 121 q 567 435 567 313 q 326 791 567 791 z "},"E":{"ha":642,"x_min":88,"x_max":586,"o":"m 248 543 l 564 543 l 564 419 l 248 420 l 248 123 l 582 123 l 582 0 l 88 0 l 88 888 l 586 888 l 586 770 l 248 770 l 248 543 z "},"F":{"ha":643,"x_min":88,"x_max":587,"o":"m 248 543 l 567 543 l 567 419 l 248 419 l 248 0 l 88 0 l 88 888 l 587 888 l 587 770 l 248 770 l 248 543 z "},"G":{"ha":807,"x_min":43,"x_max":720,"o":"m 419 -8 q 136 137 240 -8 q 43 449 43 264 q 130 754 42 617 q 415 917 236 917 q 560 892 479 917 q 707 819 654 863 l 650 713 q 446 791 538 789 q 279 663 342 791 q 228 442 228 559 q 285 220 228 312 q 425 127 342 127 q 556 151 509 127 l 556 422 l 373 422 l 373 543 l 720 543 l 720 91 q 576 16 629 35 q 419 -8 509 -8 z "},"H":{"ha":807,"x_min":88,"x_max":720,"o":"m 557 419 l 252 419 l 252 0 l 88 0 l 88 888 l 252 888 l 252 543 l 557 543 l 557 888 l 720 888 l 720 0 l 557 0 l 557 419 z "},"I":{"ha":339,"x_min":88,"x_max":252,"o":"m 88 890 l 252 890 l 252 0 l 88 0 l 88 890 z "},"J":{"ha":342,"x_min":-209,"x_max":255,"o":"m 18 -259 q -110 -232 -58 -259 q -209 -155 -142 -214 l -123 -50 q -66 -106 -90 -91 q 7 -126 -35 -126 q 90 83 88 -126 l 90 888 l 255 888 l 255 94 q 18 -259 255 -259 z "},"K":{"ha":753,"x_min":88,"x_max":753,"o":"m 300 354 l 252 286 l 252 0 l 88 0 l 88 890 l 252 890 l 252 487 l 532 935 l 678 861 q 389 458 567 708 q 559 235 439 376 q 753 11 656 122 l 559 -33 q 300 354 422 155 z "},"L":{"ha":696,"x_min":88,"x_max":609,"o":"m 88 890 l 250 890 l 250 118 l 609 118 l 609 0 l 88 0 l 88 890 z "},"M":{"ha":1101,"x_min":102,"x_max":998,"o":"m 817 593 l 605 -1 l 461 -1 l 248 598 l 248 0 l 102 0 l 102 891 l 312 891 l 555 236 l 802 891 l 998 891 l 998 0 l 817 0 l 817 593 z "},"N":{"ha":807,"x_min":88,"x_max":720,"o":"m 232 557 l 231 0 l 88 0 l 88 894 l 221 894 l 579 332 l 579 888 l 720 888 l 720 20 l 589 -20 q 232 557 453 229 z "},"O":{"ha":894,"x_min":45,"x_max":852,"o":"m 45 448 q 160 770 45 642 q 453 898 275 898 q 741 770 629 898 q 852 448 852 642 q 732 99 852 227 q 444 -22 620 -22 q 160 99 269 -22 q 45 448 45 227 m 218 435 q 282 202 218 301 q 444 103 346 103 q 612 205 543 103 q 678 433 678 302 q 617 671 678 571 q 450 774 553 776 q 281 671 347 774 q 218 435 218 572 z "},"P":{"ha":659,"x_min":88,"x_max":621,"o":"m 248 359 l 248 0 l 88 0 l 88 890 l 349 894 q 542 819 463 895 q 621 627 621 742 q 528 438 621 519 q 320 357 435 357 q 248 359 304 357 m 248 791 l 248 454 l 293 454 q 412 505 362 454 q 461 623 461 556 q 309 793 461 781 q 279 793 300 795 q 248 791 258 791 z "},"Q":{"ha":913,"x_min":43,"x_max":928,"o":"m 644 57 q 445 -26 534 -26 q 159 96 270 -26 q 43 446 43 225 q 159 770 43 642 q 454 898 275 898 q 743 772 632 898 q 854 450 854 646 q 750 170 854 270 l 928 8 l 823 -109 l 644 57 m 218 437 q 279 203 218 302 q 441 100 345 100 q 548 140 500 100 l 444 228 l 552 343 l 647 256 q 680 438 680 307 q 620 671 680 575 q 452 773 555 774 q 281 671 347 773 q 218 437 218 574 z "},"R":{"ha":724,"x_min":88,"x_max":753,"o":"m 279 365 l 248 365 l 248 0 l 88 0 l 88 890 q 231 892 126 890 q 355 894 307 894 q 549 825 481 894 q 614 636 616 757 q 559 469 613 540 q 435 384 510 407 q 753 22 545 231 l 548 -15 q 279 365 446 90 m 248 791 l 248 463 l 305 463 q 458 637 458 463 q 435 736 458 696 q 324 793 401 796 l 248 791 z "},"S":{"ha":629,"x_min":34,"x_max":602,"o":"m 34 114 l 109 221 q 298 123 191 123 q 444 266 445 123 q 342 380 444 338 q 157 463 176 449 q 58 675 57 532 q 149 861 60 789 q 315 922 225 922 q 576 823 458 922 l 521 707 q 342 796 426 796 q 258 773 285 796 q 225 674 224 746 q 323 571 225 610 q 505 487 475 510 q 602 269 604 414 q 510 50 602 126 q 309 -14 430 -14 q 34 114 125 -14 z "},"T":{"ha":743,"x_min":43,"x_max":700,"o":"m 461 0 l 296 0 l 296 774 l 43 774 l 43 887 l 700 887 l 700 774 l 461 774 l 461 0 z "},"U":{"ha":848,"x_min":88,"x_max":761,"o":"m 414 -23 q 193 58 283 -23 q 88 327 87 153 l 88 888 l 252 888 l 252 327 q 315 152 252 216 q 430 99 366 99 q 540 153 491 99 q 595 327 595 217 l 595 888 l 761 888 l 761 327 q 644 57 761 153 q 414 -23 547 -23 z "},"V":{"ha":753,"x_min":11,"x_max":742,"o":"m 315 -14 l 11 869 l 183 913 l 397 259 l 598 914 l 742 868 l 437 -14 l 315 -14 z "},"W":{"ha":1095,"x_min":15,"x_max":1088,"o":"m 735 -8 l 566 551 l 387 -8 l 264 -8 l 15 864 l 199 901 l 355 289 l 509 883 l 651 883 l 804 290 l 948 902 l 1088 863 l 844 -8 l 735 -8 z "},"X":{"ha":766,"x_min":37,"x_max":760,"o":"m 382 339 l 190 -42 l 37 14 l 298 441 l 52 863 l 213 920 l 395 566 l 579 922 l 708 861 l 464 457 l 760 14 l 586 -35 l 382 339 z "},"Y":{"ha":699,"x_min":15,"x_max":682,"o":"m 430 0 l 267 0 l 267 377 l 15 863 l 186 909 l 365 515 l 555 909 l 682 863 l 430 377 l 430 0 z "},"Z":{"ha":755,"x_min":49,"x_max":686,"o":"m 663 137 l 663 0 l 84 0 l 49 103 l 475 764 l 95 761 l 95 887 l 654 887 l 686 770 l 270 137 l 663 137 z "},"[":{"ha":312,"x_min":100,"x_max":327,"o":"m 100 1028 l 316 1028 l 316 907 l 236 907 l 236 -12 l 327 -12 l 327 -159 l 100 -159 l 100 1028 z "},"\\":{"ha":534,"x_min":8,"x_max":547,"o":"m 8 948 l 160 982 l 547 -208 l 396 -240 l 8 948 z "},"]":{"ha":369,"x_min":69,"x_max":292,"o":"m 69 -12 l 160 -12 l 160 907 l 80 907 l 80 1028 l 292 1028 l 292 -159 l 69 -159 l 69 -12 z "},"^":{"ha":743,"x_min":146,"x_max":600,"o":"m 229 616 l 146 715 l 370 952 l 600 715 l 517 616 l 370 780 l 229 616 z "},"_":{"ha":743,"x_min":7,"x_max":736,"o":"m 7 -69 l 736 -69 l 736 -152 l 7 -152 l 7 -69 z "},"`":{"ha":456,"x_min":65,"x_max":450,"o":"m 450 869 l 152 993 l 65 884 l 362 769 l 450 869 z "},"a":{"ha":681,"x_min":57,"x_max":667,"o":"m 415 309 q 313 298 373 309 q 225 273 247 288 q 191 190 191 252 q 216 121 191 151 q 275 92 241 92 q 414 159 359 92 l 415 309 m 429 75 q 349 8 370 23 q 256 -22 302 -23 q 118 33 174 -22 q 57 189 57 92 q 123 353 57 304 q 293 407 167 382 q 411 425 358 419 l 411 498 q 386 555 411 529 q 328 582 361 582 q 122 487 202 582 l 62 572 q 186 675 100 635 q 328 711 260 712 q 494 647 427 711 q 562 484 562 583 l 562 136 q 572 117 562 127 q 593 106 582 106 q 651 119 637 106 l 667 31 q 530 -15 583 -15 q 476 9 510 -15 q 429 75 438 38 z "},"b":{"ha":715,"x_min":90,"x_max":663,"o":"m 227 64 l 216 -1 l 90 -1 l 90 972 l 239 972 l 239 602 q 330 686 264 650 q 430 719 388 720 q 606 614 540 719 q 663 396 663 521 q 392 -14 663 -14 q 227 64 343 -14 m 239 465 l 239 178 q 303 132 259 153 q 381 111 347 111 q 487 205 460 111 q 505 377 503 260 q 381 595 505 597 q 239 465 302 595 z "},"c":{"ha":665,"x_min":54,"x_max":623,"o":"m 54 336 q 163 624 54 522 q 382 709 254 712 q 593 621 461 709 l 547 525 q 369 598 456 598 q 252 510 294 598 q 217 332 216 435 q 262 159 217 225 q 380 94 307 94 q 560 182 461 94 l 623 100 q 513 11 568 38 q 380 -16 457 -16 q 113 126 198 -16 q 54 336 54 222 z "},"d":{"ha":709,"x_min":52,"x_max":623,"o":"m 495 -1 l 483 68 q 399 15 441 42 q 308 -18 340 -19 q 111 102 182 -18 q 52 345 52 202 q 113 598 52 487 q 278 719 179 719 q 387 703 349 719 q 472 642 407 693 l 472 968 l 623 968 l 623 -1 l 495 -1 m 330 595 q 216 359 216 595 q 245 182 216 250 q 342 104 279 104 q 472 176 384 104 l 472 475 q 412 555 426 540 q 330 595 374 595 z "},"e":{"ha":681,"x_min":54,"x_max":631,"o":"m 382 95 q 563 182 473 94 l 625 98 q 499 4 553 28 q 372 -16 450 -16 q 107 133 190 -16 q 54 343 54 231 q 137 601 54 500 q 378 708 227 708 q 553 639 483 708 q 631 435 631 563 l 631 331 l 220 331 q 382 95 222 96 m 479 449 q 368 600 486 601 q 285 564 320 600 q 229 449 241 522 l 479 449 z "},"f":{"ha":449,"x_min":24,"x_max":488,"o":"m 326 913 q 266 776 266 914 q 267 729 266 758 q 269 692 269 700 l 441 692 l 441 567 l 269 567 l 269 0 l 122 0 l 122 567 l 24 567 l 24 692 l 122 692 l 122 765 q 324 1036 122 1036 q 420 1017 388 1036 q 488 959 427 1013 l 422 865 q 326 913 369 911 z "},"g":{"ha":709,"x_min":57,"x_max":709,"o":"m 593 449 q 519 264 593 338 q 336 190 446 190 q 258 203 300 190 q 229 170 252 195 q 213 144 213 152 q 277 94 213 100 q 377 92 286 92 q 566 75 525 92 q 651 -83 651 41 q 510 -278 651 -206 q 289 -332 401 -332 q 121 -288 184 -332 q 57 -163 57 -243 q 180 -8 57 -88 q 92 24 126 -8 q 61 95 61 54 q 110 168 61 122 q 178 236 172 229 q 68 445 68 321 q 144 624 68 548 q 334 700 221 700 q 528 620 464 700 l 709 701 l 709 544 l 572 544 q 593 449 593 476 m 220 445 q 248 347 220 392 q 336 296 282 296 q 418 342 385 296 q 452 452 452 389 q 418 544 452 499 q 331 594 380 594 q 247 543 279 594 q 220 445 220 499 m 264 -22 q 229 -61 251 -26 q 206 -129 206 -96 q 227 -205 206 -182 q 324 -232 252 -232 q 450 -184 392 -232 q 509 -88 509 -137 q 477 -33 509 -46 q 395 -22 456 -23 l 264 -22 z "},"h":{"ha":711,"x_min":88,"x_max":624,"o":"m 475 453 q 397 583 475 583 q 281 518 336 583 q 236 444 236 465 l 236 0 l 88 0 l 88 967 l 236 967 l 236 564 q 406 709 313 711 q 553 646 486 709 q 624 471 624 575 l 624 0 l 475 0 l 475 453 z "},"i":{"ha":323,"x_min":60,"x_max":264,"o":"m 60 913 q 90 987 60 958 q 163 1016 121 1016 q 234 987 203 1016 q 264 913 264 958 q 235 838 264 868 q 163 808 205 808 q 90 838 121 808 q 60 913 60 868 m 88 688 l 236 688 l 236 0 l 88 0 l 88 688 z "},"j":{"ha":323,"x_min":-42,"x_max":270,"o":"m 270 914 q 239 840 270 869 q 167 811 209 811 q 94 840 125 811 q 64 914 64 869 q 94 988 64 959 q 167 1017 125 1017 q 239 988 209 1017 q 270 914 270 959 m 165 -237 q 11 -309 115 -273 l -42 -183 q 85 -90 75 -148 q 88 -18 87 -83 l 88 688 l 237 688 l 237 -76 q 165 -237 237 -186 z "},"k":{"ha":661,"x_min":88,"x_max":659,"o":"m 278 308 l 236 247 l 236 -1 l 88 -1 l 88 968 l 236 968 l 236 401 l 483 745 l 614 654 l 358 382 l 659 43 l 526 -43 l 278 308 z "},"l":{"ha":324,"x_min":90,"x_max":236,"o":"m 90 970 l 236 970 l 236 0 l 90 0 l 90 970 z "},"m":{"ha":1077,"x_min":88,"x_max":990,"o":"m 834 471 q 760 583 834 583 q 675 536 724 583 q 616 412 616 479 l 616 0 l 460 0 l 460 450 q 434 540 460 502 q 378 578 408 578 q 286 519 336 578 q 236 425 236 461 l 236 0 l 88 0 l 88 689 l 236 689 l 236 566 q 415 704 324 704 q 515 664 465 704 q 586 572 564 624 q 783 711 690 711 q 936 635 878 711 q 990 477 990 567 l 990 0 l 834 0 l 834 471 z "},"n":{"ha":711,"x_min":88,"x_max":624,"o":"m 475 445 q 450 552 475 514 q 396 585 430 586 q 290 526 345 585 q 236 420 236 467 l 236 0 l 88 0 l 88 689 l 236 689 l 236 566 q 407 709 320 709 q 557 642 495 709 q 624 461 624 570 l 624 0 l 475 0 l 475 445 z "},"o":{"ha":758,"x_min":54,"x_max":704,"o":"m 54 350 q 167 628 54 528 q 384 711 260 711 q 595 628 506 711 q 704 350 704 529 q 642 126 704 228 q 382 -15 553 -15 q 110 127 195 -15 q 54 350 54 222 m 216 342 q 255 172 216 241 q 377 94 300 94 q 502 174 456 94 q 543 349 544 244 q 506 521 543 450 q 389 601 463 601 q 256 519 305 601 q 216 342 216 448 z "},"p":{"ha":718,"x_min":88,"x_max":667,"o":"m 236 39 l 236 -274 l 88 -274 l 88 689 l 236 689 l 236 575 q 311 671 254 629 q 425 712 368 712 q 617 601 555 712 q 667 362 667 510 q 378 -33 667 -33 q 236 39 336 -31 m 236 430 l 236 159 q 380 95 321 95 q 477 180 444 95 q 506 345 505 250 q 483 509 506 454 q 377 585 453 585 q 294 525 343 585 q 236 430 250 472 z "},"q":{"ha":709,"x_min":52,"x_max":618,"o":"m 469 625 l 469 689 l 618 689 l 618 -274 l 469 -274 l 469 60 q 384 0 397 8 q 294 -33 330 -33 q 113 81 178 -33 q 52 350 52 186 q 107 578 52 469 q 275 705 172 705 q 382 685 339 705 q 469 625 410 673 m 340 586 q 212 338 212 585 q 248 164 212 237 q 339 91 283 91 q 400 129 358 91 q 469 191 464 187 l 469 473 q 417 549 457 511 q 340 586 377 586 z "},"r":{"ha":469,"x_min":88,"x_max":442,"o":"m 347 533 q 270 490 307 532 q 236 433 236 453 l 236 0 l 88 0 l 88 689 l 236 689 l 236 576 q 286 658 254 620 q 355 703 324 703 q 442 689 408 703 l 425 517 q 389 533 401 530 q 347 533 382 534 z "},"s":{"ha":606,"x_min":64,"x_max":555,"o":"m 64 92 l 141 195 q 304 99 214 98 q 376 124 349 99 q 403 187 403 149 q 244 302 403 256 q 129 359 165 324 q 81 484 81 406 q 156 659 81 597 q 309 713 218 713 l 312 713 q 524 639 406 713 l 469 536 q 323 593 389 593 q 254 569 278 593 q 229 515 229 545 q 259 465 229 477 q 354 431 308 446 q 555 229 553 372 q 475 41 555 109 q 298 -19 404 -19 q 64 92 148 -19 z "},"t":{"ha":487,"x_min":30,"x_max":471,"o":"m 126 214 l 126 570 l 30 570 l 30 684 l 126 684 l 126 829 l 283 829 l 283 684 l 422 684 l 422 568 l 283 570 l 283 198 q 335 110 283 109 q 391 115 377 110 q 438 141 392 115 l 471 46 q 374 -1 400 7 q 266 -11 339 -11 q 126 214 126 -11 z "},"u":{"ha":709,"x_min":88,"x_max":620,"o":"m 484 0 q 471 99 480 38 q 298 -24 374 -24 q 152 43 213 -24 q 88 231 88 117 l 88 688 l 236 688 l 236 235 q 308 104 236 104 q 416 168 358 104 q 471 263 471 227 l 471 688 l 620 688 l 620 0 l 484 0 z "},"v":{"ha":644,"x_min":22,"x_max":623,"o":"m 273 -16 l 22 658 l 172 701 l 328 168 l 476 701 l 623 658 l 378 -16 l 273 -16 z "},"w":{"ha":1020,"x_min":31,"x_max":998,"o":"m 665 -12 l 514 426 l 359 -12 l 239 -12 l 31 659 l 183 699 l 312 165 l 453 685 l 583 685 l 730 167 l 850 699 l 998 659 l 784 -12 l 665 -12 z "},"x":{"ha":677,"x_min":8,"x_max":670,"o":"m 338 254 l 137 -43 l 8 45 l 244 342 l 34 631 l 172 713 l 346 441 l 525 712 l 648 642 l 427 349 l 670 43 l 540 -46 l 338 254 z "},"y":{"ha":666,"x_min":23,"x_max":644,"o":"m 159 -273 q 23 -239 119 -273 l 68 -107 q 165 -134 119 -134 q 285 45 236 -136 l 33 656 l 190 699 l 354 190 l 505 696 l 644 661 l 368 -109 q 294 -218 343 -174 q 159 -273 235 -273 z "},"z":{"ha":669,"x_min":73,"x_max":610,"o":"m 73 107 l 355 494 q 410 567 369 514 l 85 567 l 85 686 l 593 686 l 593 575 l 332 212 q 274 127 315 182 l 610 127 l 610 0 l 73 0 l 73 107 z "},"{":{"ha":743,"x_min":156,"x_max":578,"o":"m 461 1006 q 395 952 407 1006 q 391 853 391 937 q 394 757 391 818 q 397 677 397 696 q 296 471 397 572 l 296 461 q 372 358 340 420 q 410 203 410 282 q 405 94 410 172 q 400 -14 400 15 q 404 -104 400 -90 q 438 -125 411 -125 q 534 -91 498 -125 l 576 -255 q 433 -274 511 -277 q 264 -148 305 -267 q 240 84 241 -79 q 243 159 240 103 q 245 245 245 214 q 156 430 245 350 l 157 507 q 218 583 208 566 q 245 681 245 628 q 242 775 245 715 q 239 863 239 836 q 458 1158 239 1158 q 578 1138 495 1158 l 551 982 q 461 1006 479 1006 z "},"|":{"ha":317,"x_min":91,"x_max":269,"o":"m 91 952 l 269 952 l 269 -305 l 91 -305 l 91 952 z "},"}":{"ha":743,"x_min":176,"x_max":598,"o":"m 513 84 q 488 -149 513 -80 q 321 -274 448 -267 q 178 -255 243 -278 l 218 -91 q 316 -125 258 -126 q 346 -113 339 -125 q 354 -68 353 -102 q 354 -14 354 -68 q 349 94 354 16 q 345 203 345 172 q 384 358 345 282 q 458 461 415 420 l 458 471 q 357 677 357 572 q 360 757 357 696 q 363 853 363 818 q 359 952 363 937 q 293 1006 347 1006 q 205 982 275 1006 l 176 1138 q 296 1158 259 1158 q 515 863 515 1158 q 512 775 515 837 q 509 681 509 713 q 536 583 509 628 q 597 507 547 566 l 598 430 q 509 245 507 350 q 511 158 509 213 q 513 84 513 103 z "},"~":{"ha":548,"x_min":113,"x_max":494,"o":"m 290 560 q 241 583 255 583 q 208 566 225 583 q 153 500 197 555 l 113 629 q 244 690 174 690 q 335 665 290 690 q 387 640 380 640 q 429 669 401 639 q 457 700 442 685 l 494 579 q 377 526 431 526 q 290 560 339 526 z "}," ":{"ha":378,"x_min":0,"x_max":0,"o":""},"¡":{"ha":326,"x_min":52,"x_max":267,"o":"m 239 696 l 239 -142 l 66 -142 l 66 696 l 239 696 m 267 902 q 236 825 267 857 q 159 793 205 793 q 83 825 114 793 q 52 902 52 857 q 83 977 52 947 q 159 1008 114 1008 q 236 977 205 1008 q 267 902 267 947 z "},"¢":{"ha":665,"x_min":53,"x_max":624,"o":"m 53 336 q 123 590 53 494 q 289 701 186 674 l 289 819 l 453 819 l 453 703 q 606 621 526 686 l 538 515 q 450 583 468 572 q 373 605 412 605 q 258 519 304 605 q 216 332 214 439 q 262 161 216 228 q 369 94 309 94 q 453 119 412 94 q 543 194 484 137 l 624 96 q 453 -14 543 12 l 453 -123 l 289 -123 l 289 -15 q 94 148 153 16 q 53 336 53 235 z "},"£":{"ha":661,"x_min":79,"x_max":618,"o":"m 407 37 q 100 -24 342 37 l 79 114 q 127 126 103 119 q 174 149 160 134 q 209 248 209 184 q 195 407 209 336 l 103 407 l 103 536 l 178 536 q 164 648 164 610 q 221 831 164 760 q 397 911 285 910 q 579 854 481 911 l 518 742 q 404 789 423 789 q 332 744 361 789 q 302 643 302 699 q 320 536 302 623 l 495 536 l 495 407 l 347 407 q 353 273 353 347 q 309 159 353 209 q 426 165 361 165 q 618 136 510 165 l 589 -16 q 487 18 570 -11 q 407 37 438 37 z "},"¥":{"ha":736,"x_min":30,"x_max":680,"o":"m 269 399 l 30 890 l 201 890 l 354 578 l 507 890 l 680 890 l 442 399 l 547 399 l 547 283 l 438 283 l 438 216 l 547 216 l 547 100 l 438 100 l 438 3 l 273 3 l 273 100 l 159 100 l 159 216 l 273 216 l 273 283 l 159 283 l 159 399 l 269 399 z "},"Š":{"ha":682,"x_min":33,"x_max":610,"o":"m 34 114 l 109 221 q 298 123 191 123 q 444 266 445 123 q 342 380 444 338 q 157 463 176 449 q 58 675 57 532 q 149 861 60 789 q 315 922 225 922 q 576 823 458 922 l 521 707 q 342 796 426 796 q 258 773 285 796 q 225 674 224 746 q 323 571 225 610 q 505 487 475 510 q 602 269 604 414 q 510 50 602 126 q 309 -14 430 -14 q 34 114 125 -14 m 620 1215 l 620 1080 l 429 933 l 231 1080 l 231 1214 l 427 1093 l 620 1215 z "},"§":{"ha":544,"x_min":69,"x_max":446,"o":"m 69 -33 l 137 77 q 266 4 201 4 q 305 22 289 4 q 321 53 321 39 q 300 85 321 76 q 259 99 296 88 q 189 121 235 104 q 98 254 96 156 q 137 370 98 323 q 98 472 96 408 q 153 606 98 557 q 269 647 202 648 q 429 586 336 646 l 382 473 q 266 529 301 529 q 222 510 228 529 q 220 480 220 502 q 311 445 220 465 q 446 288 445 401 q 410 171 446 216 q 446 69 446 133 q 388 -75 448 -24 q 258 -121 336 -121 q 69 -33 157 -122 m 220 263 q 267 239 220 254 l 294 231 q 321 271 320 248 q 300 304 321 293 q 252 320 292 308 q 220 263 220 315 z "},"š":{"ha":606,"x_min":62,"x_max":553,"o":"m 64 92 l 141 195 q 304 99 214 98 q 376 124 349 99 q 403 187 403 149 q 244 302 403 256 q 129 359 165 324 q 81 484 81 406 q 156 659 81 597 q 309 713 218 713 l 312 713 q 524 639 406 713 l 469 536 q 323 593 389 593 q 254 569 278 593 q 229 515 229 545 q 259 465 229 477 q 354 431 308 446 q 555 229 553 372 q 475 41 555 109 q 298 -19 404 -19 q 64 92 148 -19 m 563 1006 l 563 871 l 372 724 l 174 871 l 174 1005 l 370 884 l 563 1006 z "},"©":{"ha":1105,"x_min":94,"x_max":1012,"o":"m 551 141 q 361 235 430 141 q 301 442 301 316 q 362 642 301 560 q 553 736 431 735 q 720 688 636 736 l 688 617 q 557 667 606 667 q 419 582 468 667 q 382 430 381 515 q 431 274 382 335 q 551 213 479 213 q 692 251 624 213 l 727 193 q 551 141 629 141 m 183 439 q 292 178 183 286 q 553 69 400 69 q 814 178 707 69 q 922 439 922 286 q 814 701 922 593 q 553 808 705 808 q 292 701 400 808 q 183 439 183 593 m 94 439 q 228 764 94 629 q 553 899 362 899 q 878 764 743 899 q 1012 439 1012 629 q 878 115 1012 250 q 553 -20 743 -20 q 229 115 363 -20 q 94 439 94 250 z "},"«":{"ha":541,"x_min":-1,"x_max":582,"o":"m 582 175 l 433 170 l 217 401 l 433 627 l 582 621 l 400 397 l 582 175 m 362 175 l 214 170 l -1 401 l 214 627 l 362 621 l 182 397 l 362 175 z "},"¬":{"ha":850,"x_min":122,"x_max":774,"o":"m 616 312 l 122 312 l 122 476 l 774 476 l 774 39 l 616 39 l 616 312 z "},"­":{"ha":690,"x_min":72,"x_max":620,"o":"m 72 483 l 620 483 l 620 396 l 72 396 l 72 483 z "},"®":{"ha":1105,"x_min":94,"x_max":1012,"o":"m 184 439 l 183 439 q 292 178 183 286 q 553 69 400 69 q 814 178 707 69 q 922 439 922 286 q 814 701 922 593 q 553 808 705 808 q 292 701 400 808 q 184 439 184 593 m 94 439 q 228 764 94 629 q 553 899 362 899 q 878 764 743 899 q 1012 439 1012 629 q 878 115 1012 250 q 553 -20 743 -20 q 229 115 363 -20 q 94 439 94 250 m 682 151 q 576 281 635 198 q 488 416 538 335 l 449 415 l 449 159 l 369 159 l 369 728 q 548 731 503 731 q 703 574 704 730 q 567 422 701 448 q 662 293 614 357 q 780 168 696 250 l 682 151 m 526 677 l 449 675 l 449 475 l 507 475 q 606 503 578 475 q 631 583 629 528 q 526 677 631 678 z "},"¯":{"ha":563,"x_min":146,"x_max":471,"o":"m 146 916 l 471 916 l 471 825 l 146 825 l 146 916 z "},"°":{"ha":378,"x_min":-7,"x_max":387,"o":"m 387 808 q 331 671 387 728 q 191 614 275 614 q 51 671 109 614 q -7 808 -7 728 q 51 945 -7 888 q 191 1002 109 1002 q 330 945 274 1002 q 387 808 387 888 m 95 808 q 123 739 95 766 q 191 711 151 711 q 259 739 233 711 q 285 808 285 766 q 259 878 285 850 q 191 906 233 906 q 122 878 149 906 q 95 808 95 850 z "},"±":{"ha":696,"x_min":72,"x_max":620,"o":"m 410 123 l 281 123 l 281 361 l 72 361 l 72 494 l 281 494 l 281 718 l 410 718 l 410 494 l 620 494 l 620 361 l 410 361 l 410 123 m 91 68 l 613 68 l 613 -53 l 91 -53 l 91 68 z "},"Ž":{"ha":755,"x_min":95,"x_max":677,"o":"m 671 137 l 671 0 l 107 0 l 95 119 l 481 764 l 117 761 l 117 887 l 661 887 l 677 774 l 290 137 l 671 137 m 647 1202 l 647 1065 l 457 918 l 258 1065 l 258 1200 l 456 1080 l 647 1202 z "},"µ":{"ha":705,"x_min":95,"x_max":718,"o":"m 481 41 l 469 26 q 340 -45 406 -45 q 237 -14 285 -45 l 237 -273 l 95 -273 l 95 675 l 237 675 l 237 199 q 361 99 237 98 q 435 137 400 99 q 469 208 469 175 l 469 677 l 623 677 l 623 163 q 659 43 621 68 q 718 -9 685 26 l 601 -100 q 481 41 511 -47 z "},"¶":{"ha":704,"x_min":69,"x_max":606,"o":"m 469 0 l 469 891 l 606 891 l 606 0 l 469 0 m 293 0 l 293 441 q 69 671 68 441 q 126 844 69 791 q 290 891 179 892 l 430 891 l 430 0 l 293 0 z "},"·":{"ha":327,"x_min":57,"x_max":297,"o":"m 57 574 q 92 670 57 629 q 178 711 127 711 q 263 671 229 711 q 297 574 297 631 q 263 477 297 518 q 178 437 229 437 q 92 477 127 437 q 57 574 57 518 z "},"ž":{"ha":669,"x_min":80,"x_max":617,"o":"m 80 107 l 362 494 q 416 567 376 514 l 94 567 l 94 686 l 600 686 l 600 575 l 339 212 q 281 127 321 182 l 617 127 l 617 0 l 80 0 l 80 107 m 617 1006 l 617 871 l 426 724 l 228 871 l 228 1005 l 425 884 l 617 1006 z "},"»":{"ha":545,"x_min":-23,"x_max":562,"o":"m 195 175 l 380 397 l 195 621 l 347 627 l 562 401 l 347 170 l 195 175 m -23 175 l 160 397 l -22 621 l 127 627 l 342 401 l 127 170 l -23 175 z "},"Œ":{"ha":1427,"x_min":58,"x_max":1339,"o":"m 812 218 q 467 -4 680 -4 q 175 121 288 -4 q 58 472 58 251 q 175 789 58 666 q 475 913 292 913 q 812 708 684 913 l 812 887 l 1339 887 l 1339 742 l 940 742 l 940 541 l 1326 541 l 1326 404 l 940 404 l 940 149 l 1339 149 l 1339 0 l 812 0 l 812 218 m 224 460 q 294 232 224 328 q 467 136 365 136 q 644 232 570 136 q 719 460 719 328 q 650 684 719 593 q 473 774 582 774 q 294 683 365 774 q 224 460 224 591 z "},"œ":{"ha":1434,"x_min":123,"x_max":1283,"o":"m 290 342 q 332 178 290 244 q 458 106 378 106 q 589 179 541 106 q 631 349 631 247 q 590 514 631 449 q 471 587 547 587 q 334 513 381 587 q 290 342 290 446 m 1023 95 q 1198 206 1120 95 l 1283 95 q 1012 -16 1164 -16 q 833 35 899 -16 q 747 152 784 73 q 464 -15 656 -15 q 182 127 270 -15 q 123 350 123 222 q 240 628 123 528 q 465 711 336 711 q 624 671 548 711 q 754 541 708 627 q 1032 704 844 704 q 1208 636 1141 704 q 1283 435 1283 564 l 1283 331 l 873 331 q 1023 95 883 95 m 1139 449 q 1109 545 1137 505 q 1023 595 1077 595 q 891 449 902 595 l 1139 449 z "},"Ÿ":{"ha":669,"x_min":37,"x_max":675,"o":"m 439 0 l 274 0 l 274 377 l 37 863 l 189 909 l 359 521 l 528 909 l 675 863 l 439 377 l 439 0 m 425 1053 q 448 1118 425 1090 q 522 1153 475 1153 q 595 1118 567 1153 q 620 1053 618 1088 q 595 986 620 1015 q 522 952 568 952 q 448 986 475 952 q 425 1053 425 1013 m 133 1053 q 156 1118 133 1090 q 231 1153 183 1153 q 304 1118 277 1153 q 328 1053 327 1088 q 304 986 328 1015 q 231 952 277 952 q 157 986 183 952 q 133 1053 133 1013 z "},"¿":{"ha":637,"x_min":47,"x_max":574,"o":"m 231 463 q 236 680 248 541 l 385 680 q 396 548 396 614 q 290 240 396 336 q 229 184 231 184 q 195 111 195 146 q 224 33 195 61 q 296 5 252 5 q 442 152 395 5 l 574 81 q 467 -88 528 -35 q 301 -142 401 -144 q 113 -60 184 -142 q 47 113 47 15 q 153 335 47 254 q 231 463 212 380 m 410 845 q 381 772 410 802 q 312 742 353 742 q 243 772 271 742 q 214 845 214 802 q 243 916 214 887 q 312 945 273 945 q 381 917 353 945 q 410 845 410 888 z "},"À":{"ha":804,"x_min":41,"x_max":762,"o":"m 524 233 l 273 233 l 197 -16 l 41 3 l 328 909 l 469 909 l 762 9 l 601 -16 l 524 233 m 309 362 l 486 362 l 399 671 l 309 362 m 507 952 l 217 1078 l 282 1168 l 574 1035 l 507 952 z "},"Á":{"ha":788,"x_min":41,"x_max":762,"o":"m 524 233 l 273 233 l 197 -16 l 41 3 l 328 909 l 469 909 l 762 9 l 601 -16 l 524 233 m 309 362 l 486 362 l 399 671 l 309 362 m 203 1036 l 502 1160 l 587 1051 l 290 936 l 203 1036 z "},"Â":{"ha":788,"x_min":41,"x_max":762,"o":"m 524 233 l 273 233 l 197 -16 l 41 3 l 328 909 l 469 909 l 762 9 l 601 -16 l 524 233 m 309 362 l 486 362 l 399 671 l 309 362 m 203 918 l 203 1054 l 393 1202 l 590 1054 l 590 920 l 395 1040 l 203 918 z "},"Ã":{"ha":804,"x_min":41,"x_max":762,"o":"m 524 233 l 273 233 l 197 -16 l 41 3 l 328 909 l 469 909 l 762 9 l 601 -16 l 524 233 m 309 362 l 486 362 l 399 671 l 309 362 m 388 998 q 327 1031 338 1031 q 235 966 290 1031 l 180 1074 q 327 1146 235 1143 q 422 1110 369 1147 q 490 1073 476 1073 q 562 1115 507 1073 l 613 1009 q 553 972 591 987 q 494 958 514 958 q 388 998 453 956 z "},"Ä":{"ha":804,"x_min":41,"x_max":762,"o":"m 524 233 l 273 233 l 197 -16 l 41 3 l 328 909 l 469 909 l 762 9 l 601 -16 l 524 233 m 309 362 l 486 362 l 399 671 l 309 362 m 453 1053 q 475 1118 453 1090 q 551 1153 502 1153 q 624 1118 595 1153 q 647 1053 647 1088 q 624 986 647 1015 q 551 952 597 952 q 475 986 503 952 q 453 1053 453 1013 m 161 1053 q 183 1118 161 1090 q 258 1153 210 1153 q 332 1118 304 1153 q 355 1053 355 1088 q 332 986 355 1015 q 258 952 305 952 q 184 986 210 952 q 161 1053 161 1013 z "},"Å":{"ha":804,"x_min":41,"x_max":762,"o":"m 524 233 l 273 233 l 197 -16 l 41 3 l 328 909 l 469 909 l 762 9 l 601 -16 l 524 233 m 309 362 l 486 362 l 399 671 l 309 362 m 407 952 q 316 987 351 952 q 281 1074 281 1021 q 316 1160 281 1126 q 407 1194 351 1194 q 498 1159 463 1194 q 533 1074 533 1124 q 498 987 533 1021 q 407 952 463 952 m 407 1134 q 361 1074 361 1134 q 407 1012 361 1013 q 453 1074 453 1012 q 407 1134 453 1134 z "},"Æ":{"ha":1196,"x_min":33,"x_max":1142,"o":"m 315 377 l 487 377 l 400 685 l 315 377 m 785 543 l 1118 543 l 1118 406 l 785 406 l 785 137 l 1138 137 l 1138 -1 l 602 -1 l 529 233 l 271 233 l 194 -16 l 33 3 l 330 909 l 473 909 l 614 430 l 614 890 l 1142 890 l 1142 757 l 785 757 l 785 543 z "},"Ç":{"ha":791,"x_min":52,"x_max":726,"o":"m 483 -304 q 362 -237 393 -304 l 414 -190 q 484 -235 453 -235 q 533 -187 533 -235 q 487 -133 533 -133 q 439 -155 468 -133 l 374 -125 l 382 -8 q 130 156 220 12 q 52 457 52 281 q 144 766 52 637 q 438 917 250 916 q 713 829 564 918 l 643 678 q 548 741 595 711 q 445 776 488 777 q 269 658 332 776 q 217 442 217 562 q 281 220 217 309 q 433 132 345 132 q 648 212 507 132 l 726 80 q 586 14 631 28 q 461 -11 528 -8 l 457 -65 q 491 -60 469 -60 q 586 -100 549 -60 q 617 -183 617 -136 q 582 -268 617 -232 q 483 -304 547 -304 z "},"È":{"ha":678,"x_min":95,"x_max":593,"o":"m 256 543 l 571 543 l 571 406 l 256 407 l 256 152 l 590 153 l 590 0 l 95 0 l 95 888 l 593 888 l 593 743 l 256 743 l 256 543 m 464 952 l 175 1078 l 239 1168 l 532 1035 l 464 952 z "},"É":{"ha":651,"x_min":95,"x_max":593,"o":"m 256 543 l 571 543 l 571 406 l 256 407 l 256 152 l 590 153 l 590 0 l 95 0 l 95 888 l 593 888 l 593 743 l 256 743 l 256 543 m 161 1050 l 458 1173 l 544 1065 l 247 949 l 161 1050 z "},"Ê":{"ha":678,"x_min":95,"x_max":593,"o":"m 256 543 l 571 543 l 571 406 l 256 407 l 256 152 l 590 153 l 590 0 l 95 0 l 95 888 l 593 888 l 593 743 l 256 743 l 256 543 m 174 945 l 174 1067 l 365 1215 l 563 1067 l 563 947 l 365 1054 l 174 945 z "},"Ë":{"ha":678,"x_min":95,"x_max":604,"o":"m 256 543 l 571 543 l 571 406 l 256 407 l 256 152 l 590 153 l 590 0 l 95 0 l 95 888 l 593 888 l 593 743 l 256 743 l 256 543 m 410 1053 q 433 1118 410 1089 q 507 1153 458 1153 q 581 1118 553 1153 q 604 1053 604 1088 q 581 986 604 1015 q 507 952 553 952 q 433 986 460 952 q 410 1053 410 1013 m 119 1053 q 141 1118 119 1090 q 217 1153 168 1153 q 289 1118 262 1153 q 312 1053 312 1088 q 289 986 312 1015 q 217 952 263 952 q 141 986 170 952 q 119 1053 119 1013 z "},"Ì":{"ha":298,"x_min":-15,"x_max":342,"o":"m 66 891 l 245 891 l 245 0 l 66 0 l 66 891 m 275 952 l -15 1078 l 50 1168 l 342 1035 l 275 952 z "},"Í":{"ha":298,"x_min":-30,"x_max":355,"o":"m 66 891 l 245 891 l 245 0 l 66 0 l 66 891 m -30 1036 l 270 1160 l 355 1051 l 58 936 l -30 1036 z "},"Î":{"ha":298,"x_min":-43,"x_max":346,"o":"m 58 891 l 237 891 l 237 0 l 58 0 l 58 891 m -43 945 l -43 1067 l 149 1215 l 346 1067 l 346 947 l 149 1054 l -43 945 z "},"Ï":{"ha":298,"x_min":-84,"x_max":400,"o":"m 66 891 l 245 891 l 245 0 l 66 0 l 66 891 m 206 1039 q 229 1104 206 1076 q 302 1139 255 1139 q 377 1104 349 1139 q 400 1039 400 1074 q 377 972 400 1001 q 302 939 350 939 q 229 972 255 939 q 206 1039 206 1000 m -84 1039 q -62 1104 -84 1077 q 12 1139 -35 1139 q 84 1104 57 1139 q 109 1039 107 1074 q 84 972 109 1001 q 12 939 58 939 q -62 972 -35 939 q -84 1039 -84 1000 z "},"Ð":{"ha":784,"x_min":8,"x_max":741,"o":"m 336 490 l 336 349 l 248 349 l 248 149 l 338 149 q 510 236 448 149 q 566 435 566 315 q 515 675 566 597 q 331 762 458 764 q 292 762 321 762 q 248 761 264 761 l 248 490 l 336 490 m 81 490 l 81 892 q 296 899 194 898 q 628 795 521 899 q 741 449 739 685 q 632 119 742 236 q 304 -3 519 -3 q 203 0 269 -3 q 81 3 138 3 l 81 349 l 8 349 l 8 490 l 81 490 z "},"Ñ":{"ha":791,"x_min":95,"x_max":728,"o":"m 251 548 l 251 1 l 95 -1 l 95 894 l 228 894 l 572 359 l 572 888 l 728 888 l 728 20 l 610 -20 q 251 548 502 176 m 416 958 q 355 989 366 990 q 264 924 319 989 l 210 1032 q 355 1104 264 1101 q 452 1068 397 1105 q 519 1031 506 1031 q 590 1074 537 1031 l 642 968 q 581 931 620 947 q 522 916 543 916 q 416 958 481 916 z "},"Ò":{"ha":894,"x_min":52,"x_max":859,"o":"m 52 448 q 167 770 52 642 q 460 898 282 898 q 748 770 637 898 q 859 448 859 642 q 739 99 859 227 q 450 -22 627 -22 q 167 99 275 -22 q 52 448 52 227 m 212 435 q 281 211 212 305 q 450 117 350 117 q 626 210 552 117 q 700 433 700 304 q 631 664 700 567 q 457 761 562 761 q 282 665 353 761 q 212 435 212 568 m 567 952 l 277 1078 l 342 1168 l 633 1035 l 567 952 z "},"Ó":{"ha":894,"x_min":52,"x_max":859,"o":"m 52 448 q 167 770 52 642 q 460 898 282 898 q 748 770 637 898 q 859 448 859 642 q 739 99 859 227 q 450 -22 627 -22 q 167 99 275 -22 q 52 448 52 227 m 212 435 q 281 211 212 305 q 450 117 350 117 q 626 210 552 117 q 700 433 700 304 q 631 664 700 567 q 457 761 562 761 q 282 665 353 761 q 212 435 212 568 m 263 1036 l 562 1160 l 647 1051 l 350 936 l 263 1036 z "},"Ô":{"ha":894,"x_min":52,"x_max":859,"o":"m 52 448 q 167 770 52 642 q 460 898 282 898 q 748 770 637 898 q 859 448 859 642 q 739 99 859 227 q 450 -22 627 -22 q 167 99 275 -22 q 52 448 52 227 m 212 435 q 281 211 212 305 q 450 117 350 117 q 626 210 552 117 q 700 433 700 304 q 631 664 700 567 q 457 761 562 761 q 282 665 353 761 q 212 435 212 568 m 271 918 l 271 1054 l 463 1202 l 659 1054 l 659 920 l 463 1040 l 271 918 z "},"Õ":{"ha":899,"x_min":52,"x_max":859,"o":"m 52 448 q 167 770 52 642 q 460 898 282 898 q 748 770 637 898 q 859 448 859 642 q 739 99 859 227 q 450 -22 627 -22 q 167 99 275 -22 q 52 448 52 227 m 212 435 q 281 211 212 305 q 450 117 350 117 q 626 210 552 117 q 700 433 700 304 q 631 664 700 567 q 457 761 562 761 q 282 665 353 761 q 212 435 212 568 m 416 971 q 355 1002 366 1004 q 264 937 319 1002 l 210 1046 q 355 1118 264 1115 q 452 1082 397 1119 q 519 1044 506 1044 q 590 1088 537 1044 l 642 982 q 581 945 620 960 q 522 929 543 929 q 416 971 481 929 z "},"Ö":{"ha":899,"x_min":52,"x_max":859,"o":"m 52 448 q 167 770 52 642 q 460 898 282 898 q 748 770 637 898 q 859 448 859 642 q 739 99 859 227 q 450 -22 627 -22 q 167 99 275 -22 q 52 448 52 227 m 212 435 q 281 211 212 305 q 450 117 350 117 q 626 210 552 117 q 700 433 700 304 q 631 664 700 567 q 457 761 562 761 q 282 665 353 761 q 212 435 212 568 m 513 1039 q 534 1104 513 1077 q 610 1139 562 1139 q 684 1104 655 1139 q 707 1039 707 1074 q 684 972 707 1001 q 610 939 656 939 q 534 972 563 939 q 513 1039 513 1000 m 221 1039 q 243 1104 221 1077 q 317 1139 270 1139 q 392 1104 363 1139 q 415 1039 415 1074 q 392 972 415 1001 q 317 939 365 939 q 244 972 270 939 q 221 1039 221 1000 z "},"Ø":{"ha":894,"x_min":45,"x_max":852,"o":"m 45 448 q 160 770 45 642 q 453 898 275 898 q 510 892 484 898 l 528 954 l 680 907 l 658 838 q 800 679 749 781 q 852 448 852 576 q 732 99 852 227 q 444 -22 620 -22 q 400 -19 429 -22 l 374 -103 l 224 -56 l 248 26 q 45 448 45 144 m 442 117 l 444 117 q 619 210 545 117 q 693 433 693 304 q 612 681 693 583 l 442 117 m 205 435 q 296 183 205 282 l 469 760 q 450 761 463 761 q 275 665 345 761 q 205 435 205 568 z "},"Ù":{"ha":792,"x_min":95,"x_max":712,"o":"m 393 -23 q 186 58 266 -23 q 95 327 94 151 l 95 888 l 259 888 l 259 327 q 396 113 259 113 q 499 160 457 113 q 547 327 548 217 l 547 888 l 712 888 l 712 327 q 610 57 712 152 q 393 -23 522 -23 m 509 952 l 218 1078 l 283 1168 l 575 1035 l 509 952 z "},"Ú":{"ha":792,"x_min":95,"x_max":712,"o":"m 393 -23 q 186 58 266 -23 q 95 327 94 151 l 95 888 l 259 888 l 259 327 q 396 113 259 113 q 499 160 457 113 q 547 327 548 217 l 547 888 l 712 888 l 712 327 q 610 57 712 152 q 393 -23 522 -23 m 205 1036 l 503 1160 l 589 1051 l 292 936 l 205 1036 z "},"Û":{"ha":792,"x_min":95,"x_max":712,"o":"m 393 -23 q 186 58 266 -23 q 95 327 94 151 l 95 888 l 259 888 l 259 327 q 396 113 259 113 q 499 160 457 113 q 547 327 548 217 l 547 888 l 712 888 l 712 327 q 610 57 712 152 q 393 -23 522 -23 m 201 932 l 201 1054 l 393 1202 l 590 1054 l 590 933 l 393 1040 l 201 932 z "},"Ü":{"ha":723,"x_min":95,"x_max":712,"o":"m 393 -23 q 186 58 266 -23 q 95 327 94 151 l 95 888 l 259 888 l 259 327 q 396 113 259 113 q 499 160 457 113 q 547 327 548 217 l 547 888 l 712 888 l 712 327 q 610 57 712 152 q 393 -23 522 -23 m 439 1039 q 463 1104 439 1076 q 536 1139 488 1139 q 610 1104 582 1139 q 633 1039 633 1074 q 610 972 633 1001 q 536 939 583 939 q 463 972 488 939 q 439 1039 439 1000 m 149 1039 q 171 1104 149 1077 q 245 1139 198 1139 q 317 1104 290 1139 q 342 1039 340 1074 q 317 972 342 1001 q 245 939 292 939 q 171 972 198 939 q 149 1039 149 1000 z "},"Ý":{"ha":699,"x_min":37,"x_max":675,"o":"m 439 0 l 274 0 l 274 377 l 37 863 l 189 909 l 359 521 l 528 909 l 675 863 l 439 377 l 439 0 m 190 967 l 487 1090 l 574 982 l 277 867 l 190 967 z "},"Þ":{"ha":754,"x_min":83,"x_max":686,"o":"m 241 250 l 241 -151 l 83 -151 l 83 972 l 241 972 l 241 860 q 385 940 332 940 q 612 819 526 940 q 686 566 685 713 q 598 271 688 370 q 388 184 521 186 q 315 206 351 184 q 241 250 278 228 m 241 708 l 241 389 q 302 336 262 358 q 381 313 342 313 q 491 387 453 313 q 525 548 525 450 q 487 719 525 650 q 361 800 442 799 q 241 708 286 800 z "},"ß":{"ha":762,"x_min":72,"x_max":699,"o":"m 247 84 l 316 194 q 399 122 357 137 q 464 115 416 115 q 525 148 502 115 q 543 208 543 172 q 496 278 543 252 q 412 308 480 286 q 256 526 256 359 q 305 644 256 582 q 441 718 362 718 q 503 705 472 718 q 507 728 507 712 q 506 758 507 739 q 505 783 505 777 q 458 834 505 815 q 362 854 418 853 q 266 808 307 854 q 225 694 225 762 l 225 -1 l 72 -1 l 72 694 q 144 905 72 823 q 369 993 222 994 q 562 923 492 993 q 632 732 632 853 q 585 557 632 639 q 469 587 503 589 q 406 519 406 587 q 438 479 406 495 q 511 454 446 475 q 667 346 621 419 q 699 216 700 294 q 626 48 699 117 q 457 -20 553 -20 q 346 -5 378 -20 q 247 84 308 12 z "},"à":{"ha":681,"x_min":57,"x_max":667,"o":"m 519 869 l 221 993 l 134 884 l 431 769 l 519 869 m 415 309 q 313 298 373 309 q 225 273 247 288 q 191 190 191 252 q 216 121 191 151 q 275 92 241 92 q 414 159 359 92 l 415 309 m 429 75 q 349 8 370 23 q 256 -22 302 -23 q 118 33 174 -22 q 57 189 57 92 q 123 353 57 304 q 293 407 167 382 q 411 425 358 419 l 411 498 q 386 555 411 529 q 328 582 361 582 q 122 487 202 582 l 62 572 q 186 675 100 635 q 328 711 260 712 q 494 647 427 711 q 562 484 562 583 l 562 136 q 572 117 562 127 q 593 106 582 106 q 651 119 637 106 l 667 31 q 530 -15 583 -15 q 476 9 510 -15 q 429 75 438 38 z "},"á":{"ha":681,"x_min":57,"x_max":667,"o":"m 175 869 l 473 993 l 560 884 l 263 769 l 175 869 m 415 309 q 313 298 373 309 q 225 273 247 288 q 191 190 191 252 q 216 121 191 151 q 275 92 241 92 q 414 159 359 92 l 415 309 m 429 75 q 349 8 370 23 q 256 -22 302 -23 q 118 33 174 -22 q 57 189 57 92 q 123 353 57 304 q 293 407 167 382 q 411 425 358 419 l 411 498 q 386 555 411 529 q 328 582 361 582 q 122 487 202 582 l 62 572 q 186 675 100 635 q 328 711 260 712 q 494 647 427 711 q 562 484 562 583 l 562 136 q 572 117 562 127 q 593 106 582 106 q 651 119 637 106 l 667 31 q 530 -15 583 -15 q 476 9 510 -15 q 429 75 438 38 z "},"â":{"ha":681,"x_min":57,"x_max":667,"o":"m 160 724 l 160 846 l 351 993 l 548 846 l 548 726 l 351 831 l 160 724 m 415 309 q 313 298 373 309 q 225 273 247 288 q 191 190 191 252 q 216 121 191 151 q 275 92 241 92 q 414 159 359 92 l 415 309 m 429 75 q 349 8 370 23 q 256 -22 302 -23 q 118 33 174 -22 q 57 189 57 92 q 123 353 57 304 q 293 407 167 382 q 411 425 358 419 l 411 498 q 386 555 411 529 q 328 582 361 582 q 122 487 202 582 l 62 572 q 186 675 100 635 q 328 711 260 712 q 494 647 427 711 q 562 484 562 583 l 562 136 q 572 117 562 127 q 593 106 582 106 q 651 119 637 106 l 667 31 q 530 -15 583 -15 q 476 9 510 -15 q 429 75 438 38 z "},"ã":{"ha":681,"x_min":57,"x_max":667,"o":"m 315 804 q 254 836 266 837 q 163 770 217 836 l 107 879 q 252 951 161 948 q 349 915 294 952 q 418 878 404 878 q 487 921 434 878 l 540 815 q 480 778 518 793 q 420 762 442 762 q 315 804 377 762 m 415 309 q 313 298 373 309 q 225 273 247 288 q 191 190 191 252 q 216 121 191 151 q 275 92 241 92 q 414 159 359 92 l 415 309 m 429 75 q 349 8 370 23 q 256 -22 302 -23 q 118 33 174 -22 q 57 189 57 92 q 123 353 57 304 q 293 407 167 382 q 411 425 358 419 l 411 498 q 386 555 411 529 q 328 582 361 582 q 122 487 202 582 l 62 572 q 186 675 100 635 q 328 711 260 712 q 494 647 427 711 q 562 484 562 583 l 562 136 q 572 117 562 127 q 593 106 582 106 q 651 119 637 106 l 667 31 q 530 -15 583 -15 q 476 9 510 -15 q 429 75 438 38 z "},"ä":{"ha":681,"x_min":57,"x_max":667,"o":"m 396 830 q 418 895 396 868 q 494 930 445 930 q 567 895 538 930 q 590 830 590 865 q 567 764 590 792 q 494 731 540 730 q 418 764 446 731 q 396 830 396 791 m 104 830 q 126 895 104 868 q 201 930 153 930 q 275 895 247 930 q 298 830 298 865 q 275 764 298 792 q 201 731 248 730 q 127 764 153 731 q 104 830 104 791 m 415 309 q 313 298 373 309 q 225 273 247 288 q 191 190 191 252 q 216 121 191 151 q 275 92 241 92 q 414 159 359 92 l 415 309 m 429 75 q 349 8 370 23 q 256 -22 302 -23 q 118 33 174 -22 q 57 189 57 92 q 123 353 57 304 q 293 407 167 382 q 411 425 358 419 l 411 498 q 386 555 411 529 q 328 582 361 582 q 122 487 202 582 l 62 572 q 186 675 100 635 q 328 711 260 712 q 494 647 427 711 q 562 484 562 583 l 562 136 q 572 117 562 127 q 593 106 582 106 q 651 119 637 106 l 667 31 q 530 -15 583 -15 q 476 9 510 -15 q 429 75 438 38 z "},"å":{"ha":681,"x_min":57,"x_max":667,"o":"m 334 787 q 243 821 278 787 q 209 907 209 854 q 243 993 209 959 q 334 1027 278 1027 q 425 993 391 1027 q 460 907 460 959 q 425 821 460 854 q 334 787 391 787 m 334 967 q 289 907 289 967 q 334 846 289 846 q 380 907 380 846 q 334 967 380 967 m 415 309 q 313 298 373 309 q 225 273 247 288 q 191 190 191 252 q 216 121 191 151 q 275 92 241 92 q 414 159 359 92 l 415 309 m 429 75 q 349 8 370 23 q 256 -22 302 -23 q 118 33 174 -22 q 57 189 57 92 q 123 353 57 304 q 293 407 167 382 q 411 425 358 419 l 411 498 q 386 555 411 529 q 328 582 361 582 q 122 487 202 582 l 62 572 q 186 675 100 635 q 328 711 260 712 q 494 647 427 711 q 562 484 562 583 l 562 136 q 572 117 562 127 q 593 106 582 106 q 651 119 637 106 l 667 31 q 530 -15 583 -15 q 476 9 510 -15 q 429 75 438 38 z "},"æ":{"ha":1076,"x_min":57,"x_max":1008,"o":"m 751 595 q 642 559 677 595 q 593 452 616 532 l 854 452 l 854 453 q 751 595 854 595 m 391 -1 q 264 -22 335 -22 q 119 33 179 -22 q 57 189 57 91 q 127 357 57 304 q 300 420 174 391 q 422 444 354 433 l 422 498 q 397 548 422 528 q 338 568 372 568 q 157 473 274 568 l 72 586 q 214 677 129 637 q 338 711 293 712 q 532 620 463 711 q 760 704 621 704 q 937 628 867 704 q 1008 422 1008 552 l 1008 332 l 591 332 q 765 95 594 95 q 922 203 840 95 l 997 104 q 755 -16 899 -16 q 513 80 597 -16 q 391 -1 439 16 m 349 285 q 252 263 273 271 q 205 186 203 241 q 279 111 203 111 q 368 130 326 111 q 422 194 422 153 l 422 297 q 349 285 414 296 z "},"ç":{"ha":670,"x_min":54,"x_max":623,"o":"m 544 -183 q 511 -267 544 -232 q 410 -304 473 -305 q 290 -237 321 -304 l 342 -190 q 411 -235 381 -235 q 461 -187 461 -235 q 414 -133 461 -133 q 366 -155 395 -133 l 301 -125 l 307 -11 l 312 -11 q 102 146 170 14 q 54 336 54 237 q 163 624 54 522 q 382 709 254 712 q 593 621 461 709 l 547 525 q 369 598 456 598 q 252 510 294 598 q 217 332 216 435 q 262 159 217 225 q 380 94 307 94 q 560 182 461 94 l 623 100 q 393 -16 525 -11 l 388 -16 l 384 -65 q 418 -60 396 -60 q 513 -100 476 -60 q 544 -183 544 -134 m 388 -16 l 384 -65 q 418 -60 396 -60 q 513 -100 476 -60 q 544 -183 545 -136 q 511 -267 544 -232 q 410 -304 473 -305 q 290 -237 321 -304 l 342 -190 q 411 -235 381 -235 q 461 -187 461 -235 q 414 -133 461 -133 q 366 -155 395 -133 l 301 -125 l 308 -11 l 388 -16 z "},"è":{"ha":689,"x_min":54,"x_max":631,"o":"m 562 869 l 263 993 l 205 884 l 502 769 l 562 869 m 382 95 q 563 182 473 94 l 625 98 q 499 4 553 28 q 372 -16 450 -16 q 107 133 190 -16 q 54 343 54 231 q 137 601 54 500 q 378 708 227 708 q 553 639 483 708 q 631 435 631 563 l 631 331 l 220 331 q 382 95 222 96 m 479 449 q 368 600 486 601 q 285 564 320 600 q 229 449 241 522 l 479 449 z "},"é":{"ha":689,"x_min":54,"x_max":631,"o":"m 175 869 l 473 993 l 518 884 l 221 769 l 175 869 m 382 95 q 563 182 473 94 l 625 98 q 499 4 553 28 q 372 -16 450 -16 q 107 133 190 -16 q 54 343 54 231 q 137 601 54 500 q 378 708 227 708 q 553 639 483 708 q 631 435 631 563 l 631 331 l 220 331 q 382 95 222 96 m 479 449 q 368 600 486 601 q 285 564 320 600 q 229 449 241 522 l 479 449 z "},"ê":{"ha":689,"x_min":54,"x_max":631,"o":"m 187 779 l 187 902 l 380 1048 l 576 902 l 576 780 l 380 887 l 187 779 m 382 95 q 563 182 473 94 l 625 98 q 499 4 553 28 q 372 -16 450 -16 q 107 133 190 -16 q 54 343 54 231 q 137 601 54 500 q 378 708 227 708 q 553 639 483 708 q 631 435 631 563 l 631 331 l 220 331 q 382 95 222 96 m 479 449 q 368 600 486 601 q 285 564 320 600 q 229 449 241 522 l 479 449 z "},"ë":{"ha":689,"x_min":53,"x_max":616,"o":"m 395 872 q 418 937 395 910 q 492 972 445 972 q 566 937 538 972 q 590 872 589 907 q 566 806 590 834 q 492 772 538 772 q 419 806 445 772 q 395 872 395 833 m 103 872 q 127 937 103 909 q 201 972 153 972 q 274 937 247 972 q 298 872 297 907 q 274 806 298 834 q 201 772 247 772 q 127 806 153 772 q 103 872 103 833 m 382 95 q 563 182 473 94 l 625 98 q 499 4 553 28 q 372 -16 450 -16 q 107 133 190 -16 q 54 343 54 231 q 137 601 54 500 q 378 708 227 708 q 553 639 483 708 q 631 435 631 563 l 631 331 l 220 331 q 382 95 222 96 m 479 449 q 368 600 486 601 q 285 564 320 600 q 229 449 241 522 l 479 449 z "},"ì":{"ha":345,"x_min":-20,"x_max":357,"o":"m 88 688 l 236 688 l 236 0 l 88 0 l 88 688 m 368 869 l 69 993 l -18 884 l 279 769 l 368 869 z "},"í":{"ha":324,"x_min":-14,"x_max":342,"o":"m -14 869 l 283 993 l 342 884 l 45 769 l -14 869 m 88 688 l 236 688 l 236 0 l 88 0 l 88 688 z "},"î":{"ha":292,"x_min":-37,"x_max":345,"o":"m 88 688 l 236 688 l 236 0 l 88 0 l 88 688 m -34 724 l -34 846 l 157 993 l 355 846 l 355 726 l 157 831 l -34 724 z "},"ï":{"ha":286,"x_min":-76,"x_max":410,"o":"m 88 688 l 236 688 l 236 0 l 88 0 l 88 688 m 216 872 q 237 937 216 910 q 312 972 264 972 q 387 937 358 972 q 410 872 410 907 q 387 806 410 834 q 312 772 359 772 q 239 806 264 772 q 216 872 216 833 m -76 872 q -53 937 -76 909 q 20 972 -27 972 q 95 937 66 972 q 118 872 118 907 q 95 806 118 834 q 20 772 68 772 q -53 806 -27 772 q -76 872 -76 833 z "},"ð":{"ha":803,"x_min":50,"x_max":754,"o":"m 391 623 q 259 541 309 623 q 216 349 214 467 q 266 167 216 250 q 393 77 320 77 q 529 161 483 77 q 571 345 570 233 q 572 479 572 480 q 391 623 468 623 m 404 860 q 327 948 387 887 l 430 1023 q 568 860 511 943 l 754 860 l 754 758 l 650 758 q 708 566 685 682 q 730 388 730 457 q 365 -23 724 -23 q 129 98 218 -23 q 50 346 50 203 q 156 637 50 538 q 393 724 248 723 q 545 644 430 724 q 514 715 545 675 q 476 758 496 735 l 282 758 l 282 860 l 404 860 z "},"ñ":{"ha":674,"x_min":88,"x_max":624,"o":"m 345 804 q 283 836 296 837 q 191 770 247 836 l 136 879 q 282 951 190 948 q 378 915 324 952 q 448 878 433 878 q 517 921 464 878 l 570 815 q 509 778 548 793 q 450 762 471 762 q 345 804 407 762 m 475 445 q 450 552 475 514 q 396 585 430 586 q 290 526 345 585 q 236 420 236 467 l 236 0 l 88 0 l 88 689 l 236 689 l 236 566 q 407 709 320 709 q 557 642 495 709 q 624 461 624 570 l 624 0 l 475 0 l 475 445 z "},"ò":{"ha":754,"x_min":54,"x_max":704,"o":"m 537 772 l 247 898 l 312 987 l 604 854 l 537 772 m 54 350 q 167 628 54 528 q 384 711 260 711 q 595 628 506 711 q 704 350 704 529 q 642 126 704 228 q 382 -15 553 -15 q 110 127 195 -15 q 54 350 54 222 m 216 342 q 255 172 216 241 q 377 94 300 94 q 502 174 456 94 q 543 349 544 244 q 506 521 543 450 q 389 601 463 601 q 256 519 305 601 q 216 342 216 448 z "},"ó":{"ha":754,"x_min":54,"x_max":704,"o":"m 233 869 l 532 993 l 618 884 l 321 769 l 233 869 m 54 350 q 167 628 54 528 q 384 711 260 711 q 595 628 506 711 q 704 350 704 529 q 642 126 704 228 q 382 -15 553 -15 q 110 127 195 -15 q 54 350 54 222 m 216 342 q 255 172 216 241 q 377 94 300 94 q 502 174 456 94 q 543 349 544 244 q 506 521 543 450 q 389 601 463 601 q 256 519 305 601 q 216 342 216 448 z "},"ô":{"ha":754,"x_min":54,"x_max":704,"o":"m 201 724 l 201 846 l 393 993 l 590 846 l 590 726 l 393 831 l 201 724 m 54 350 q 167 628 54 528 q 384 711 260 711 q 595 628 506 711 q 704 350 704 529 q 642 126 704 228 q 382 -15 553 -15 q 110 127 195 -15 q 54 350 54 222 m 216 342 q 255 172 216 241 q 377 94 300 94 q 502 174 456 94 q 543 349 544 244 q 506 521 543 450 q 389 601 463 601 q 256 519 305 601 q 216 342 216 448 z "},"õ":{"ha":754,"x_min":54,"x_max":704,"o":"m 388 804 q 327 836 338 837 q 235 770 290 836 l 180 879 q 327 951 235 948 q 422 915 369 952 q 490 878 476 878 q 562 921 507 878 l 613 815 q 553 778 591 793 q 494 762 514 762 q 388 804 453 762 m 54 350 q 167 628 54 528 q 384 711 260 711 q 595 628 506 711 q 704 350 704 529 q 642 126 704 228 q 382 -15 553 -15 q 110 127 195 -15 q 54 350 54 222 m 216 342 q 255 172 216 241 q 377 94 300 94 q 502 174 456 94 q 543 349 544 244 q 506 521 543 450 q 389 601 463 601 q 256 519 305 601 q 216 342 216 448 z "},"ö":{"ha":754,"x_min":53,"x_max":688,"o":"m 437 872 q 460 937 437 910 q 534 972 487 972 q 608 937 581 972 q 632 872 631 907 q 608 806 632 834 q 534 772 581 772 q 461 806 487 772 q 437 872 437 833 m 145 872 q 170 937 145 909 q 243 972 195 972 q 316 937 289 972 q 340 872 339 907 q 316 806 340 834 q 243 772 289 772 q 170 806 195 772 q 145 872 145 833 m 54 350 q 167 628 54 528 q 384 711 260 711 q 595 628 506 711 q 704 350 704 529 q 642 126 704 228 q 382 -15 553 -15 q 110 127 195 -15 q 54 350 54 222 m 216 342 q 255 172 216 241 q 377 94 300 94 q 502 174 456 94 q 543 349 544 244 q 506 521 543 450 q 389 601 463 601 q 256 519 305 601 q 216 342 216 448 z "},"÷":{"ha":688,"x_min":72,"x_max":633,"o":"m 264 667 q 294 745 264 713 q 363 776 323 776 q 436 744 407 776 q 465 667 465 712 q 436 591 465 623 q 363 559 407 559 q 293 591 321 559 q 264 667 264 623 m 72 500 l 633 500 l 633 361 l 72 361 l 72 500 m 264 197 q 294 273 264 241 q 363 305 323 305 q 436 273 407 305 q 465 197 465 241 q 436 119 465 151 q 363 88 407 88 q 293 119 321 88 q 264 197 264 151 z "},"ø":{"ha":758,"x_min":54,"x_max":704,"o":"m 578 762 l 548 663 q 704 350 704 567 q 642 126 704 228 q 382 -15 553 -15 q 346 -14 358 -15 l 320 -103 l 171 -56 l 197 35 q 80 193 117 88 q 54 350 54 266 q 167 628 54 528 q 384 711 260 711 l 399 711 l 427 810 l 578 762 m 365 600 q 251 509 292 589 q 216 342 214 439 q 244 193 216 259 l 365 600 m 543 349 q 506 521 543 449 l 378 94 q 503 174 457 95 q 543 349 543 245 z "},"ù":{"ha":669,"x_min":88,"x_max":620,"o":"m 494 772 l 205 898 l 269 987 l 562 854 l 494 772 m 484 0 q 471 99 480 38 q 298 -24 374 -24 q 152 43 213 -24 q 88 231 88 117 l 88 688 l 236 688 l 236 235 q 308 104 236 104 q 416 168 358 104 q 471 263 471 227 l 471 688 l 620 688 l 620 0 l 484 0 z "},"ú":{"ha":669,"x_min":88,"x_max":620,"o":"m 175 869 l 473 993 l 560 884 l 263 769 l 175 869 m 484 0 q 471 99 480 38 q 298 -24 374 -24 q 152 43 213 -24 q 88 231 88 117 l 88 688 l 236 688 l 236 235 q 308 104 236 104 q 416 168 358 104 q 471 263 471 227 l 471 688 l 620 688 l 620 0 l 484 0 z "},"û":{"ha":669,"x_min":88,"x_max":620,"o":"m 174 724 l 174 846 l 365 993 l 563 846 l 563 726 l 365 831 l 174 724 m 484 0 q 471 99 480 38 q 298 -24 374 -24 q 152 43 213 -24 q 88 231 88 117 l 88 688 l 236 688 l 236 235 q 308 104 236 104 q 416 168 358 104 q 471 263 471 227 l 471 688 l 620 688 l 620 0 l 484 0 z "},"ü":{"ha":669,"x_min":85,"x_max":605,"o":"m 410 872 q 433 937 410 910 q 507 972 460 972 q 581 937 553 972 q 605 872 604 907 q 581 806 605 834 q 507 772 553 772 q 434 806 460 772 q 410 872 410 833 m 118 872 q 142 937 118 909 q 216 972 168 972 q 289 937 262 972 q 313 872 312 907 q 289 806 313 834 q 216 772 262 772 q 142 806 168 772 q 118 872 118 833 m 484 0 q 471 99 480 38 q 298 -24 374 -24 q 152 43 213 -24 q 88 231 88 117 l 88 688 l 236 688 l 236 235 q 308 104 236 104 q 416 168 358 104 q 471 263 471 227 l 471 688 l 620 688 l 620 0 l 484 0 z "},"ý":{"ha":666,"x_min":23,"x_max":629,"o":"m 171 894 l 469 1017 l 514 909 l 217 793 l 171 894 m 159 -273 q 23 -239 119 -273 l 68 -107 q 165 -134 119 -134 q 285 45 236 -136 l 33 656 l 190 699 l 354 190 l 505 696 l 644 661 l 368 -109 q 294 -218 343 -174 q 159 -273 235 -273 z "},"þ":{"ha":724,"x_min":83,"x_max":685,"o":"m 282 -5 q 244 18 274 -1 l 240 20 l 240 -271 l 83 -271 l 83 951 l 240 951 l 240 600 q 316 670 301 658 q 403 705 363 707 q 616 602 537 705 q 685 365 684 507 q 595 65 686 167 q 378 -24 515 -26 q 282 -5 321 -24 m 240 419 l 240 155 q 303 119 259 137 q 378 102 347 102 q 488 180 450 102 q 524 351 524 250 q 494 503 524 444 q 385 574 457 574 q 302 519 349 574 q 240 419 266 475 z "},"ÿ":{"ha":648,"x_min":31,"x_max":651,"o":"m 165 -273 q 31 -239 130 -273 l 75 -107 q 172 -134 126 -134 q 248 -54 214 -134 q 289 66 269 7 l 39 656 l 186 699 l 362 190 l 513 696 l 651 661 l 374 -109 q 301 -218 351 -174 q 165 -273 241 -273 m 380 830 q 403 895 380 867 q 476 930 429 930 q 551 895 522 930 q 574 830 574 865 q 551 764 574 792 q 476 731 524 730 q 403 764 429 731 q 380 830 380 791 m 90 830 q 111 895 90 868 q 186 930 138 930 q 258 895 231 930 q 282 830 281 865 q 258 764 282 792 q 186 731 232 730 q 111 764 138 731 q 90 830 90 791 z "},"†":{"ha":307,"x_min":33,"x_max":267,"o":"m 187 742 l 187 463 l 99 463 l 99 742 l 33 742 l 33 833 l 99 833 l 99 910 l 187 910 l 187 833 l 267 833 l 267 742 l 187 742 z "},"•":{"ha":391,"x_min":66,"x_max":321,"o":"m 194 264 q 104 304 141 264 q 66 404 66 343 q 104 503 66 464 q 194 543 141 543 q 283 503 245 543 q 321 404 321 464 q 283 304 321 345 q 194 264 245 264 z "},"™":{"ha":890,"x_min":20,"x_max":860,"o":"m 241 438 l 153 438 l 153 819 l 20 819 l 20 891 l 365 891 l 365 819 l 241 819 l 241 438 m 770 713 l 665 438 l 590 438 l 483 716 l 483 438 l 400 438 l 400 894 l 509 894 l 632 576 l 755 894 l 860 894 l 860 438 l 770 438 l 770 713 z "},"´":{"ha":456,"x_min":65,"x_max":408,"o":"m 65 869 l 363 993 l 408 884 l 111 769 l 65 869 z "},"¨":{"ha":425,"x_min":-35,"x_max":452,"o":"m 256 872 q 279 937 256 910 q 354 972 307 972 q 427 937 400 972 q 452 872 450 907 q 427 806 452 834 q 354 772 400 772 q 281 806 307 772 q 256 872 256 833 m -35 872 q -11 937 -35 909 q 62 972 15 972 q 136 937 109 972 q 160 872 159 907 q 136 806 160 834 q 62 772 109 772 q -11 806 15 772 q -35 872 -35 833 z "},"≠":{"ha":612,"x_min":71,"x_max":540,"o":"m 127 16 l 179 174 l 71 174 l 71 309 l 224 309 l 244 369 l 71 369 l 71 506 l 289 506 l 369 749 l 494 704 l 426 506 l 540 506 l 540 369 l 382 369 l 361 309 l 540 309 l 540 174 l 316 174 l 250 -27 l 127 16 z "},"∞":{"ha":743,"x_min":12,"x_max":731,"o":"m 372 422 q 224 366 309 366 q 74 420 136 366 q 12 553 12 475 q 74 684 12 629 q 224 738 136 738 q 372 684 309 738 q 521 738 433 738 q 669 684 606 738 q 731 553 731 629 q 669 422 731 477 q 521 366 606 366 q 372 422 431 366 m 433 555 q 458 499 433 522 q 521 476 483 476 q 584 499 559 476 q 609 555 609 522 q 584 608 609 586 q 521 631 559 631 q 458 608 483 631 q 433 555 433 586 m 134 555 q 161 498 134 518 q 224 477 187 477 q 285 498 259 477 q 311 555 311 518 q 285 608 311 586 q 224 631 259 631 q 160 608 186 631 q 134 555 134 586 z "},"≤":{"ha":347,"x_min":18,"x_max":362,"o":"m 362 161 l 221 155 l 18 392 l 221 623 l 362 617 l 190 388 l 362 161 m 30 107 l 336 107 l 336 5 l 30 5 l 30 107 z "},"≥":{"ha":347,"x_min":4,"x_max":347,"o":"m 4 161 l 175 388 l 4 617 l 144 623 l 347 392 l 144 155 l 4 161 m 30 107 l 336 107 l 336 5 l 30 5 l 30 107 z "},"∂":{"ha":766,"x_min":60,"x_max":708,"o":"m 60 331 q 155 620 58 522 q 385 705 239 705 q 553 628 480 705 q 518 712 543 665 q 471 779 491 765 q 340 814 425 814 q 140 766 244 814 l 98 924 q 313 958 209 958 q 547 895 464 958 q 708 414 708 777 q 642 106 708 210 q 374 -23 562 -23 q 140 90 228 -23 q 60 331 61 191 m 384 578 q 267 519 311 578 q 224 349 224 460 q 269 185 224 251 q 389 119 315 119 q 564 369 564 119 q 557 475 564 423 q 384 578 483 578 z "},"∑":{"ha":681,"x_min":126,"x_max":623,"o":"m 127 126 l 391 471 l 126 745 l 144 879 l 623 879 l 623 734 l 346 734 l 586 484 l 335 152 l 623 153 l 623 0 l 127 0 l 127 126 z "},"∏":{"ha":826,"x_min":171,"x_max":709,"o":"m 538 0 l 538 735 l 342 735 l 342 0 l 171 0 l 171 891 l 709 891 l 709 0 l 538 0 z "},"π":{"ha":719,"x_min":96,"x_max":642,"o":"m 480 570 l 308 570 l 308 0 l 148 0 l 148 570 l 96 570 l 96 705 l 642 705 l 642 0 l 480 0 l 480 570 z "},"∫":{"ha":420,"x_min":24,"x_max":452,"o":"m 312 826 q 250 727 250 826 q 312 442 250 666 q 378 88 377 209 q 334 -102 378 -28 q 155 -194 277 -195 q 24 -161 125 -194 l 60 5 q 159 -34 126 -34 q 216 110 216 -34 q 152 380 216 161 q 84 728 85 608 q 134 909 84 840 q 315 990 194 990 q 452 940 368 990 l 381 788 q 312 826 332 826 z "},"Ω":{"ha":897,"x_min":56,"x_max":814,"o":"m 579 137 l 785 137 l 785 0 l 465 0 l 465 282 q 602 353 547 282 q 652 481 652 415 q 441 760 652 758 q 275 687 335 760 q 216 481 216 614 q 256 353 216 410 q 403 282 309 282 l 403 0 l 84 0 l 84 137 l 285 137 l 285 174 q 123 296 190 198 q 56 496 56 393 q 161 789 56 688 q 442 884 262 886 q 718 786 621 884 q 814 496 814 688 q 745 294 814 393 q 579 174 675 195 l 579 137 z "},"√":{"ha":699,"x_min":71,"x_max":505,"o":"m 187 -14 l 71 427 l 212 506 l 247 311 l 357 887 l 505 887 l 321 -14 l 187 -14 z "},"ƒ":{"ha":500,"x_min":33,"x_max":570,"o":"m 370 842 q 289 693 301 842 l 464 693 l 452 555 l 281 555 l 217 -170 l 66 -171 l 132 552 l 33 551 l 46 690 l 142 692 q 380 987 172 985 q 483 968 444 987 q 570 909 490 964 l 487 792 q 370 842 411 842 z "},"≈":{"ha":743,"x_min":175,"x_max":578,"o":"m 362 396 q 312 425 326 426 q 278 404 296 425 q 227 331 270 395 l 175 467 q 316 552 245 551 q 406 522 361 552 q 458 491 450 491 q 496 525 465 491 q 525 559 510 541 l 578 426 q 449 357 511 357 q 362 396 410 357 m 362 149 q 312 178 324 179 q 278 157 296 178 q 227 84 269 146 l 175 220 q 316 304 245 304 q 406 275 361 304 q 458 245 450 245 q 496 278 465 245 q 525 311 510 294 l 578 179 q 449 110 511 110 q 362 149 412 110 z "},"Δ":{"ha":956,"x_min":107,"x_max":902,"o":"m 445 913 l 591 913 l 902 0 l 107 0 l 445 913 m 327 125 l 684 125 l 517 681 l 327 125 z "},"…":{"ha":1249,"x_min":174,"x_max":1078,"o":"m 837 73 q 875 167 837 132 q 959 197 909 198 q 1044 164 1009 197 q 1078 73 1078 132 q 1043 -17 1078 16 q 959 -50 1008 -50 q 873 -17 910 -50 q 837 73 837 16 m 506 73 q 543 167 506 132 q 627 197 576 198 q 711 164 677 197 q 746 73 746 132 q 711 -17 746 16 q 627 -50 677 -50 q 542 -17 578 -50 q 506 73 506 16 m 174 73 q 212 167 174 132 q 294 197 245 198 q 379 164 345 197 q 414 73 414 132 q 379 -17 414 16 q 294 -50 345 -50 q 210 -17 245 -50 q 174 73 174 16 z "},"–":{"ha":694,"x_min":47,"x_max":647,"o":"m 47 505 l 647 505 l 647 406 l 47 406 l 47 505 z "},"—":{"ha":1389,"x_min":38,"x_max":1351,"o":"m 38 505 l 1351 505 l 1351 406 l 38 406 l 38 505 z "},"“":{"ha":595,"x_min":71,"x_max":537,"o":"m 446 937 l 537 933 q 502 804 511 876 q 495 685 500 791 l 349 685 q 382 815 349 735 q 446 937 411 888 m 168 937 l 259 933 q 224 804 233 876 q 217 685 222 791 l 71 685 q 104 815 71 735 q 168 937 133 888 z "},"”":{"ha":595,"x_min":71,"x_max":537,"o":"m 163 671 l 71 689 q 107 818 96 746 q 114 937 109 831 l 259 937 q 227 800 259 887 q 163 671 197 719 m 441 671 l 349 689 q 385 818 374 746 q 392 937 387 831 l 537 937 q 505 800 537 887 q 441 671 475 719 z "},"‘":{"ha":191,"x_min":1,"x_max":190,"o":"m 99 937 l 190 933 q 155 804 164 876 q 148 685 153 791 l 1 685 q 35 815 1 735 q 99 937 64 888 z "},"’":{"ha":191,"x_min":1,"x_max":190,"o":"m 94 685 l 1 703 q 38 831 27 760 q 45 951 39 845 l 190 951 q 157 814 190 901 q 94 685 127 732 z "},"◊":{"ha":799,"x_min":16,"x_max":746,"o":"m 16 463 l 382 818 l 746 463 l 382 109 l 16 463 m 221 461 l 387 301 l 551 461 l 387 623 l 221 461 z "},"⁄":{"ha":745,"x_min":73,"x_max":722,"o":"m 73 175 l 578 825 l 722 734 l 218 83 l 73 175 z "},"¤":{"ha":678,"x_min":50,"x_max":586,"o":"m 339 484 l 339 422 l 564 422 l 564 313 l 339 313 l 339 152 l 582 153 l 582 0 l 176 0 l 176 313 l 50 313 l 50 422 l 176 422 l 176 486 l 50 486 l 50 606 l 176 606 l 176 888 l 586 888 l 586 743 l 339 743 l 339 606 l 564 606 l 564 484 l 339 484 z "},"‹":{"ha":442,"x_min":68,"x_max":412,"o":"m 412 175 l 271 170 l 68 401 l 271 627 l 412 621 l 240 397 l 412 175 z "},"›":{"ha":439,"x_min":42,"x_max":385,"o":"m 42 175 l 213 397 l 42 621 l 182 627 l 385 401 l 182 170 l 42 175 z "},"":{"ha":671,"x_min":24,"x_max":600,"o":"m 343 913 q 274 823 289 914 q 270 692 267 780 l 600 692 l 600 0 l 446 0 l 446 567 l 269 567 l 269 0 l 122 0 l 122 567 l 24 567 l 24 692 l 122 692 l 122 766 q 163 936 122 863 q 343 1039 221 1039 q 449 1021 408 1039 q 537 964 456 1017 l 460 863 q 343 913 387 911 z "},"":{"ha":734,"x_min":24,"x_max":646,"o":"m 494 888 l 494 971 l 646 971 l 646 1 l 494 1 l 494 808 q 345 872 434 872 q 269 776 269 872 l 269 692 l 392 692 l 392 567 l 269 567 l 269 0 l 122 0 l 122 567 l 24 567 l 24 692 l 122 692 l 122 726 q 315 997 122 998 q 494 888 399 997 z "},"‡":{"ha":307,"x_min":5,"x_max":282,"o":"m 195 532 l 195 340 l 90 340 l 90 532 l 5 532 l 5 614 l 90 614 l 90 726 l 5 726 l 5 806 l 90 806 l 90 910 l 195 910 l 195 806 l 282 806 l 282 726 l 195 726 l 195 614 l 282 614 l 282 532 l 195 532 z "},"‚":{"ha":297,"x_min":1,"x_max":190,"o":"m 94 -149 l 1 -130 q 38 -1 27 -73 q 45 118 39 12 l 190 118 q 157 -19 190 68 q 94 -149 127 -102 z "},"„":{"ha":579,"x_min":71,"x_max":537,"o":"m 163 -163 l 71 -144 q 107 -15 96 -87 q 114 104 109 -1 l 259 104 q 227 -34 259 54 q 163 -163 197 -115 m 441 -163 l 349 -144 q 385 -15 374 -87 q 392 104 387 -1 l 537 104 q 505 -34 537 54 q 441 -163 475 -115 z "},"‰":{"ha":1230,"x_min":31,"x_max":1168,"o":"m 830 172 q 879 302 830 250 q 1000 355 928 355 q 1120 302 1072 355 q 1168 172 1168 250 q 1122 34 1168 81 q 1000 -14 1076 -14 q 878 35 925 -14 q 830 172 830 83 m 31 719 q 79 850 31 796 q 198 903 126 903 q 319 851 271 903 q 368 719 368 799 q 321 583 368 631 q 198 534 274 534 q 78 583 125 534 q 31 719 31 631 m 463 172 q 512 302 463 250 q 633 355 562 355 q 753 302 705 355 q 802 172 802 250 q 755 34 802 81 q 633 -14 708 -14 q 510 35 557 -14 q 463 172 463 83 m 33 -64 l 559 880 l 700 827 l 182 -114 l 33 -64 m 966 168 q 1000 110 966 110 q 1035 168 1035 110 q 1027 206 1035 187 q 998 229 1016 229 q 966 168 966 229 m 164 715 q 198 658 164 658 q 233 715 233 658 q 197 776 233 776 q 164 715 164 776 m 598 168 q 633 110 598 110 q 669 168 669 110 q 659 206 669 187 q 632 229 648 229 q 598 168 598 229 z "},"":{"ha":762,"x_min":218,"x_max":560,"o":"m 419 629 l 419 669 l 469 669 l 469 715 l 510 715 l 510 669 l 560 669 l 560 629 l 510 629 l 510 583 l 469 583 l 469 629 l 419 629 m 218 259 l 218 298 l 267 298 l 267 345 l 308 345 l 308 298 l 357 298 l 357 259 l 308 259 l 308 213 l 267 213 l 267 259 l 218 259 m 308 384 l 334 384 l 334 351 l 308 351 l 308 384 m 335 404 l 354 404 l 354 391 l 335 391 l 335 404 m 355 429 l 418 429 l 418 411 l 355 411 l 355 429 m 330 496 l 350 496 l 350 439 l 330 439 l 330 496 m 465 544 l 442 544 l 442 576 l 465 576 l 465 544 m 441 524 l 420 524 l 420 537 l 441 537 l 441 524 m 418 499 l 355 499 l 355 517 l 418 517 l 418 499 m 445 431 l 425 431 l 425 490 l 445 490 l 445 431 z "},"ı":{"ha":323,"x_min":88,"x_max":236,"o":"m 88 688 l 236 688 l 236 0 l 88 0 l 88 688 z "},"ˆ":{"ha":468,"x_min":49,"x_max":438,"o":"m 49 724 l 49 846 l 240 993 l 438 846 l 438 726 l 240 831 l 49 724 z "},"˜":{"ha":521,"x_min":56,"x_max":488,"o":"m 264 804 q 203 836 216 837 q 111 770 167 836 l 56 879 q 203 951 113 948 q 298 915 245 952 q 366 878 351 878 q 437 921 385 878 l 488 815 q 429 778 467 793 q 369 762 391 762 q 264 804 327 762 z "},"˘":{"ha":479,"x_min":37,"x_max":427,"o":"m 37 891 l 141 905 q 236 838 175 840 q 324 906 293 838 l 427 891 q 237 747 377 747 q 37 891 90 747 z "},"˙":{"ha":328,"x_min":76,"x_max":279,"o":"m 76 800 q 105 867 76 841 q 178 894 134 894 q 250 866 220 894 q 279 800 279 838 q 250 733 279 761 q 178 705 221 705 q 105 733 134 705 q 76 800 76 761 z "},"˚":{"ha":423,"x_min":113,"x_max":365,"o":"m 239 800 q 148 834 183 800 q 113 921 113 868 q 148 1006 113 972 q 239 1040 183 1040 q 330 1006 294 1040 q 365 921 365 972 q 330 834 365 868 q 239 800 294 800 m 239 981 q 193 921 193 981 q 239 860 193 860 q 285 921 285 860 q 239 981 285 981 z "},"¸":{"ha":283,"x_min":15,"x_max":274,"o":"m 15 -244 l 72 -205 q 155 -252 114 -254 q 176 -231 165 -252 q 187 -197 187 -210 q 177 -163 187 -179 q 159 -148 167 -148 q 109 -170 118 -148 l 30 -146 l 38 5 l 149 7 l 144 -50 l 149 -50 q 243 -94 208 -50 q 274 -180 274 -132 q 247 -278 274 -235 q 153 -332 213 -332 q 15 -244 54 -332 z "},"˝":{"ha":502,"x_min":24,"x_max":537,"o":"m 244 779 l 397 937 l 537 937 l 384 779 l 244 779 m 24 779 l 179 937 l 317 937 l 165 779 l 24 779 z "},"ˇ":{"ha":468,"x_min":49,"x_max":438,"o":"m 438 1006 l 438 871 l 247 724 l 49 871 l 49 1005 l 245 884 l 438 1006 z "},"Ł":{"ha":696,"x_min":8,"x_max":609,"o":"m 80 510 l 80 890 l 244 890 l 244 574 l 331 606 l 331 449 l 244 415 l 244 146 l 609 146 l 609 0 l 80 0 l 80 353 l 8 326 l 8 481 l 80 510 z "},"ł":{"ha":391,"x_min":20,"x_max":339,"o":"m 248 0 l 96 0 l 96 399 l 20 355 l 22 517 l 96 559 l 96 891 l 247 891 l 247 644 l 338 694 l 339 534 l 247 483 l 248 0 z "},"¦":{"ha":252,"x_min":75,"x_max":182,"o":"m 75 387 l 182 387 l 182 -24 l 75 -24 l 75 387 m 75 911 l 182 911 l 182 500 l 75 500 l 75 911 z "}}}
